<?xml version="1.0" encoding="utf-8"?>
<!-- Generator: Adobe Illustrator 23.1.0, SVG Export Plug-In . SVG Version: 6.00 Build 0)  -->
<svg version="1.1" id="Layer_1" xmlns="http://www.w3.org/2000/svg" xmlns:xlink="http://www.w3.org/1999/xlink" x="0px" y="0px"
	 viewBox="0 0 512 512" style="enable-background:new 0 0 512 512;" xml:space="preserve">
<style type="text/css">
	.st0{fill:#D69E47;}
</style>
<g transform="translate(1 1)">
	<g>
		<g>
			<path class="st0" d="M343.6,402.7H166.4c-5.9,0-9.8,3.9-9.8,9.8v39.4c0,5.9,3.9,9.8,9.8,9.8h177.2c5.9,0,9.8-3.9,9.8-9.8v-39.4
				C353.5,406.6,349.5,402.7,343.6,402.7z M333.8,442.1H176.2v-19.7h157.5L333.8,442.1L333.8,442.1z"/>
			<path class="st0" d="M473.6,352.5h-15.7l-14.8-187.1c-4.9-56.1-51.2-97.5-107.3-97.5h-1h-1.7c-4.7-33.6-33.2-59.1-68.2-59.1
				h-19.7c-35.1,0-63.5,25.4-68.2,59.1c-54.6,0.6-100.2,41.8-106,96.5c0,0.6,0,1.1,0,1.6c0,0.1,0,0.2,0,0.3L52.6,353.5H36.4
				C15.7,353.5-1,370.2-1,390.9v33.5c0,37.4,29.5,67,67,67h33.9c12.8,6.4,27.1,9.8,41.9,9.8h231.4c14.5,0,28.6-3.4,41.3-9.8H444
				c37.4,0,67-29.5,67-67.9v-33.5C511,369.2,494.3,352.5,473.6,352.5z M353.5,156.5c5.9,0,9.8-3.9,9.8-9.8c0-5.9-3.9-9.8-9.8-9.8
				h-39.4c-5.9,0-9.8,3.9-9.8,9.8c0,5.9,3.9,9.8,9.8,9.8h9.8v104.1c-21.3,9.1-44.7,14.1-68.9,14.1c-24.3,0-47.6-4.8-68.9-13.7V156.5
				h9.8c5.9,0,9.8-3.9,9.8-9.8c0-5.9-3.9-9.8-9.8-9.8h-39.4c-5.9,0-9.8,3.9-9.8,9.8c0,5.9,3.9,9.8,9.8,9.8h9.8v94.7
				c-33.5-19.2-60.4-49.3-75.8-86.8c5.7-42.9,41-74.7,83.5-76.7c1.4-0.1,2.8-0.1,4.2-0.1l0,0h156.6c1.4,0,2.7,0,4.1,0.1
				c0.8,0,1.5,0.1,2.3,0.2c0.5,0,1.1,0.1,1.6,0.1c1.1,0.1,2.2,0.2,3.4,0.4c0.1,0,0.3,0,0.4,0c37,4.9,66.8,32.6,74.9,69.1
				c-14.7,40-42.6,72.6-77.8,93.2v-94.2L353.5,156.5L353.5,156.5z M245.2,28.5h19.7c23.6,0,43.3,16.7,48.2,39.4H196.9
				C201.8,45.3,221.5,28.5,245.2,28.5z M18.7,424.4v-33.5c0-9.8,7.9-17.7,17.7-17.7h14.3l-2.5,25.6c-0.2,2.5-0.3,5-0.3,7.5
				c0,23.2,7.8,44.6,22.8,62c0.7,0.8,1.4,1.6,2.1,2.4c0.3,0.3,0.6,0.7,0.9,1H66C39.4,471.6,18.7,450.9,18.7,424.4z M142.8,481.5
				c-20.7,0-41.4-8.9-55.1-24.6c-14.8-14.8-21.7-35.4-19.7-56.1l3.9-36.4c0-0.9-0.1-1.8-0.3-2.7l15-162.1
				c19.3,32.2,47,57.7,79.8,74.1v40.5h-9.8l-9.8,9.8v39.4l9.8,9.8h39.4l9.8-9.8v-39.4l-9.8-9.8h-9.8v-32c21.6,8,44.8,12.3,68.9,12.3
				c24,0,47.3-4.4,68.9-12.5v32.2h-9.8l-9.8,9.8v39.4l9.8,9.8h39.4l9.8-9.8v-39.4l-9.8-9.8h-9.8v-40.8c33.9-17.2,62.6-44,82-77.7
				l16.5,208.2c0.3,3.8,0.4,7.5,0.2,11.1c-0.7,11.4-3.5,22-8.2,31.1c-2.9,5.4-6.5,10.4-10.7,15c-4.4,4.4-9.3,8.1-14.7,11.2
				c-0.4,0.2-0.7,0.4-1.1,0.6c-0.3,0.1-0.6,0.3-0.8,0.5c-10,5.3-21.4,8.4-33.6,8.4H142.8z M186.1,333.8v19.7h-19.7v-19.7H186.1z
				 M343.6,333.8v19.7h-19.7v-19.7H343.6z M491.3,424.4c0,26.6-21.7,47.3-47.3,47.3h-3.9c6.6-7.8,11.8-16.8,15.5-26.8
				c4.1-10.8,6.4-22.6,6.5-34.9c0.1-3.7,0-7.4-0.3-11.2l-2-25.6h13.8c9.8,0,17.7,7.9,17.7,17.7L491.3,424.4L491.3,424.4z"/>
		</g>
	</g>
</g>
</svg>
