<?xml version="1.0" encoding="utf-8"?>
<!-- Generator: Adobe Illustrator 23.1.0, SVG Export Plug-In . SVG Version: 6.00 Build 0)  -->
<svg version="1.1" id="Capa_1" xmlns="http://www.w3.org/2000/svg" xmlns:xlink="http://www.w3.org/1999/xlink" x="0px" y="0px"
	 viewBox="0 0 512 512" style="enable-background:new 0 0 512 512;" xml:space="preserve">
<style type="text/css">
	.st0{fill:#D69E47;}
</style>
<title>ionicons-v5-h</title>
<path class="st0" d="M432,176H320V64c0-26.5-21.5-48-48-48H80c-26.5,0-48,21.5-48,48v416c0,8.8,7.2,16,16,16h104c4.4,0,8-3.6,8-8
	v-71.5c0-8.6,6.6-16,15.2-16.4c8.8-0.4,16.3,6.4,16.8,15.2c0,0.3,0,0.5,0,0.8v72c0,4.4,3.6,8,8,8h264c8.8,0,16-7.2,16-16V224
	C480,197.5,458.5,176,432,176z M98.1,431.9c-8.8,1.1-16.8-5-17.9-13.8c-1.1-8.8,5-16.8,13.8-17.9c8.8-1.1,16.8,5,17.9,13.8
	c0.2,1.4,0.2,2.8,0,4.1C110.9,425.3,105.3,430.9,98.1,431.9z M98.1,351.9c-8.8,1.1-16.8-5-17.9-13.8c-1.1-8.8,5-16.8,13.8-17.9
	c8.8-1.1,16.8,5,17.9,13.8c0.2,1.4,0.2,2.8,0,4.1C110.9,345.3,105.3,350.9,98.1,351.9z M98.1,271.9c-8.8,1.1-16.8-5-17.9-13.8
	c-1.1-8.8,5-16.8,13.8-17.9s16.8,5,17.9,13.8c0.2,1.4,0.2,2.8,0,4.1C110.9,265.3,105.3,270.9,98.1,271.9z M98.1,191.9
	c-8.8,1.1-16.8-5-17.9-13.8c-1.1-8.8,5-16.8,13.8-17.9c8.8-1.1,16.8,5,17.9,13.8c0.2,1.4,0.2,2.8,0,4.1
	C110.9,185.3,105.3,190.9,98.1,191.9z M98.1,111.9c-8.8,1.1-16.8-5-17.9-13.8c-1.1-8.8,5-16.8,13.8-17.9c8.8-1.1,16.8,5,17.9,13.8
	c0.2,1.4,0.2,2.8,0,4.1C110.9,105.3,105.3,110.9,98.1,111.9z M178.1,351.9c-8.8,1.1-16.8-5-17.9-13.8c-1.1-8.8,5-16.8,13.8-17.9
	c8.8-1.1,16.8,5,17.9,13.8c0.2,1.4,0.2,2.8,0,4.1C190.9,345.3,185.3,350.9,178.1,351.9z M178.1,271.9c-8.8,1.1-16.8-5-17.9-13.8
	c-1.1-8.8,5-16.8,13.8-17.9c8.8-1.1,16.8,5,17.9,13.8c0.2,1.4,0.2,2.8,0,4.1C190.9,265.3,185.3,270.9,178.1,271.9z M178.1,191.9
	c-8.8,1.1-16.8-5-17.9-13.8s5-16.8,13.8-17.9s16.8,5,17.9,13.8c0.2,1.4,0.2,2.8,0,4.1C190.9,185.3,185.3,190.9,178.1,191.9z
	 M178.1,111.9c-8.8,1.1-16.8-5-17.9-13.8s5-16.8,13.8-17.9c8.8-1.1,16.8,5,17.9,13.8c0.2,1.4,0.2,2.8,0,4.1
	C190.9,105.3,185.3,110.9,178.1,111.9z M258.1,431.9c-8.8,1.1-16.8-5-17.9-13.8c-1.1-8.8,5-16.8,13.8-17.9c8.8-1.1,16.8,5,17.9,13.8
	c0.2,1.4,0.2,2.8,0,4.1C270.9,425.3,265.3,430.9,258.1,431.9L258.1,431.9z M258.1,351.9c-8.8,1.1-16.8-5-17.9-13.8
	c-1.1-8.8,5-16.8,13.8-17.9c8.8-1.1,16.8,5,17.9,13.8c0.2,1.4,0.2,2.8,0,4.1C270.9,345.3,265.3,350.9,258.1,351.9L258.1,351.9z
	 M258.1,271.9c-8.8,1.1-16.8-5-17.9-13.8c-1.1-8.8,5-16.8,13.8-17.9c8.8-1.1,16.8,5,17.9,13.8c0.2,1.4,0.2,2.8,0,4.1
	C270.9,265.3,265.3,270.9,258.1,271.9L258.1,271.9z M258.1,191.9c-8.8,1.1-16.8-5-17.9-13.8c-1.1-8.8,5-16.8,13.8-17.9
	c8.8-1.1,16.8,5,17.9,13.8c0.2,1.4,0.2,2.8,0,4.1C270.9,185.3,265.3,190.9,258.1,191.9L258.1,191.9z M258.1,111.9
	c-8.8,1.1-16.8-5-17.9-13.8c-1.1-8.8,5-16.8,13.8-17.9s16.8,5,17.9,13.8c0.2,1.4,0.2,2.8,0,4.1C270.9,105.3,265.3,110.9,258.1,111.9
	L258.1,111.9z M444,464H320V208h112c8.8,0,16,7.2,16,16v236C448,462.2,446.2,464,444,464z"/>
<path class="st0" d="M400,400c-8.8,0-16,7.2-16,16s7.2,16,16,16s16-7.2,16-16S408.8,400,400,400z"/>
<path class="st0" d="M400,320c-8.8,0-16,7.2-16,16s7.2,16,16,16s16-7.2,16-16S408.8,320,400,320z"/>
<path class="st0" d="M400,240c-8.8,0-16,7.2-16,16c0,8.8,7.2,16,16,16s16-7.2,16-16C416,247.2,408.8,240,400,240z"/>
<path class="st0" d="M336,400c-8.8,0-16,7.2-16,16s7.2,16,16,16s16-7.2,16-16S344.8,400,336,400z"/>
<path class="st0" d="M336,320c-8.8,0-16,7.2-16,16s7.2,16,16,16s16-7.2,16-16S344.8,320,336,320z"/>
<path class="st0" d="M336,240c-8.8,0-16,7.2-16,16c0,8.8,7.2,16,16,16s16-7.2,16-16C352,247.2,344.8,240,336,240z"/>
</svg>
