<?xml version="1.0" encoding="utf-8"?>
<!-- Generator: Adobe Illustrator 23.1.0, SVG Export Plug-In . SVG Version: 6.00 Build 0)  -->
<svg version="1.1" id="Capa_1" xmlns="http://www.w3.org/2000/svg" xmlns:xlink="http://www.w3.org/1999/xlink" x="0px" y="0px"
	 viewBox="0 0 443.1 443.1" style="enable-background:new 0 0 443.1 443.1;" xml:space="preserve">
<style type="text/css">
	.st0{fill:#D69E47;}
</style>
<g>
	<g>
		<path class="st0" d="M438.7,394.8c-0.3-1.1-8.8-26.2-22.1-54c-20.2-41.9-40.9-67.5-63.3-78.3c-0.1,0-40.7-18.9-40.7-18.9l-17.7-15
			l-28.1,27.9l17.3,124.6c0.1,0.4,0,0.8-0.3,1.1l-17.7,24.3c-0.3,0.4-0.7,0.6-1.2,0.6s-0.9-0.2-1.2-0.6l-17.7-24.3
			c-0.2-0.3-0.3-0.7-0.3-1.1L262.9,257l-28.4-28.3l-17.8,15c0,0-78.6,36-106.2,43.7c4.2-17,10.4-38.6,17.2-59
			c5.5-16.3-3.3-33.9-19.6-39.4c-16.3-5.5-33.9,3.3-39.4,19.6c-0.3,1-8.2,24.5-15.1,50c-13.1,48.5-13.9,68.8-3.2,83.7
			c6.5,9.1,16.6,14.3,27.6,14.3h0.2c18.2,0,52.4-9,87.9-22.5l0,108.9h196.8l0-69.8c6.5,14.1,11.5,27.1,14.3,34.6
			c-1.2,6.7-4,19-10.1,35.2h65.7c6-20.6,7.2-33.9,7.3-36.4C440.5,402.7,440,398.6,438.7,394.8z"/>
		<path class="st0" d="M264.7,227.5c45.5,0,79.5-42.4,80.2-113.5c0.5-49.3-23-78.8-80.2-78.8c-57.2,0-80.7,29.5-80.2,78.8
			C185.2,185.1,219.2,227.5,264.7,227.5z"/>
		<path class="st0" d="M58.8,110c4.4,6.5,9,13.1,9.3,22.2l0.4,17.7c0,2.6,2.1,4.8,4.8,4.8h2.9c0.9,5,5.3,8.8,10.6,8.8
			c5.3,0,9.7-3.8,10.6-8.8h2.9c2.6,0,4.8-2.1,4.8-4.8l0.4-17.7c0.3-9,4.8-15.7,9.3-22.2c5.3-7.8,10.7-15.8,10.7-29.9
			c0-20.3-17.3-36.7-38.7-36.7C65.4,43.4,48,59.9,48,80.1C48,94.3,53.5,102.3,58.8,110z M86.7,120.1l-5.9-33.7
			c-0.1-1,0.4-1.8,0.7-2.1c0.5-0.6,1.1-0.9,1.6-0.9c0.6,0,1.1,0.5,1.4,0.8c0.6,0.7,1.4,1.1,2.2,1.1c0.9,0,1.7-0.4,2.2-1.1
			c0.2-0.3,0.7-0.8,1.4-0.8c0.6,0,1.2,0.3,1.7,0.9c0.3,0.3,0.8,1.1,0.6,2.1L86.7,120.1z M86.7,53c16.1,0,29.1,12.2,29.1,27.2
			c0,11.2-4.2,17.4-9.1,24.5c-4.1,6-9,13.2-10.5,22.6l-4.9,0l7-40c0,0,0,0,0-0.1c0.4-2.5-0.3-4.9-2-6.8c-1.6-1.8-3.8-2.9-6.1-2.9
			c-1.3,0-2.5,0.3-3.6,1c-1.1-0.6-2.4-1-3.6-1c-2.2,0-4.4,1.1-6,2.9c-1.6,1.9-2.4,4.4-2,6.8c0,0,0,0,0,0.1l7,40l-4.9,0
			c-1.5-9.5-6.4-16.7-10.5-22.7c-4.9-7.2-9.1-13.3-9.1-24.5C57.6,65.2,70.7,53,86.7,53z"/>
		<path class="st0" d="M86.7,34.6c2.5,0,4.5-2,4.5-4.5l0-25.6c0-2.5-2-4.5-4.5-4.5c-2.5,0-4.5,2-4.5,4.5v0v25.6
			c0,1.3,0.5,2.4,1.3,3.2S85.5,34.6,86.7,34.6z"/>
		<path class="st0" d="M122.1,47.5c1.3,0,2.6-0.5,3.5-1.6L142,26.3c1.6-1.9,1.4-4.8-0.6-6.4c-1.9-1.6-4.8-1.4-6.4,0.6l-16.4,19.6
			c-1.6,1.9-1.4,4.8,0.6,6.4C120,47.2,121.1,47.5,122.1,47.5z"/>
		<path class="st0" d="M136.5,76.4c0.4,2.2,2.3,3.7,4.5,3.7c0.3,0,0.5,0,0.8-0.1l25.2-4.4c2.5-0.4,4.1-2.8,3.7-5.3
			c-0.4-2.5-2.8-4.1-5.3-3.7l-25.2,4.4C137.7,71.6,136,73.9,136.5,76.4z"/>
		<path class="st0" d="M136.7,108.8c-2.2-1.3-4.9-0.5-6.2,1.7c-1.3,2.2-0.5,4.9,1.7,6.2l22.1,12.8c0.7,0.4,1.5,0.6,2.3,0.6
			c1.6,0,3.1-0.8,3.9-2.3c1.3-2.2,0.5-4.9-1.7-6.2L136.7,108.8z"/>
		<path class="st0" d="M43,110.4c-1.3-2.2-4-2.9-6.2-1.7l-22.1,12.8c-2.2,1.3-2.9,4-1.7,6.2c0.8,1.5,2.4,2.3,3.9,2.3
			c0.8,0,1.5-0.2,2.3-0.6l22.1-12.8C43.5,115.4,44.2,112.6,43,110.4z"/>
		<path class="st0" d="M32.5,80.1c2.2,0,4.1-1.5,4.5-3.7c0.4-2.5-1.2-4.8-3.7-5.3L8.1,66.7c-2.5-0.4-4.8,1.2-5.2,3.7
			c-0.4,2.5,1.2,4.8,3.7,5.3l25.2,4.4C32,80.1,32.2,80.1,32.5,80.1z"/>
		<path class="st0" d="M47.9,45.9c0.9,1.1,2.2,1.6,3.5,1.6h0c1,0,2.1-0.3,2.9-1.1c1.9-1.6,2.2-4.5,0.6-6.4L38.4,20.5
			c-1.6-1.9-4.5-2.2-6.4-0.6c-1,0.8-1.5,1.9-1.6,3.1c-0.1,1.2,0.2,2.3,1,3.3L47.9,45.9z"/>
	</g>
</g>
</svg>
