<?xml version="1.0" encoding="utf-8"?>
<!-- Generator: Adobe Illustrator 23.1.0, SVG Export Plug-In . SVG Version: 6.00 Build 0)  -->
<svg version="1.1" id="Capa_1" xmlns="http://www.w3.org/2000/svg" xmlns:xlink="http://www.w3.org/1999/xlink" x="0px" y="0px"
	 viewBox="0 0 75.5 75.5" style="enable-background:new 0 0 75.5 75.5;" xml:space="preserve">
<style type="text/css">
	.st0{fill:#D69E47;}
</style>
<path class="st0" d="M75.2,34c-0.4-0.4-1-0.4-1.4-0.1l-2,1.8L61.2,25.1c-0.4-0.4-1-0.4-1.4,0c-0.4,0.4-0.4,1,0,1.4L70.3,37l-5.2,4.7
	L47.7,24.1L65,7.7c0.4-0.4,0.4-1,0-1.4c-0.4-0.4-1-0.4-1.4,0l-18,17.1c-0.2,0.2-0.3,0.4-0.3,0.7s0.1,0.5,0.3,0.7l1.6,1.6l-3.5,3.7
	l-6.8-0.7c-0.3,0-0.6,0.1-0.8,0.3l-2.8,2.7l-5.1-5.1l1.7-1.8c0.2-0.2,0.3-0.5,0.3-0.7s-0.1-0.5-0.3-0.7l-18-17c-0.4-0.4-1-0.4-1.4,0
	c-0.4,0.4-0.4,1,0,1.4L22.6,20L4.8,37.5l-3.1-2.8c-0.4-0.4-1-0.3-1.4,0.1s-0.3,1,0.1,1.4l9.4,8.4c0.2,0.2,0.4,0.3,0.7,0.3
	c0.3,0,0.5-0.1,0.7-0.3l1.7-1.7l9.4,9.2l-1.7,1.7c-0.4,0.4-0.4,1,0,1.4l3.5,3.5c0,0,0,0,0,0s0,0,0,0l3.5,3.5l3.5,3.5l3.5,3.5
	c0.2,0.2,0.5,0.3,0.7,0.3s0.5-0.1,0.7-0.3l1.8-1.8l1.8,1.8c0.2,0.2,0.4,0.3,0.7,0.3c0.3,0,0.5-0.1,0.7-0.3l2.8-2.8l0.4,0.4
	c0.2,0.2,0.5,0.3,0.7,0.3s0.5-0.1,0.7-0.3l2.8-2.8l0.4,0.4c0.2,0.2,0.5,0.3,0.7,0.3s0.5-0.1,0.7-0.3l2.8-2.8l0.4,0.4
	c0.2,0.2,0.5,0.3,0.7,0.3s0.5-0.1,0.7-0.3l3.5-3.5c0.4-0.4,0.4-1,0-1.4l-5.2-5.2l9.4-10l1.8,1.8c0.2,0.2,0.5,0.3,0.7,0.3
	c0.2,0,0.5-0.1,0.7-0.3l9.4-8.4C75.5,35,75.6,34.4,75.2,34z M24.6,34.5c0,2.4-2,4.4-4.4,4.4c-1,0-1.9-0.3-2.6-0.9l6.1-6.1
	C24.3,32.6,24.6,33.6,24.6,34.5z M25.2,30.5l1.7-1.7l0.9,0.9l-1.8,1.9C25.7,31.2,25.4,30.8,25.2,30.5z M10.3,42.5l-4.1-3.6
	l17.8-17.4l3.7,3.5L10.3,42.5z M16.2,39.4c0.4,0.3,0.7,0.5,1.1,0.8c-0.3,0.3-0.6,0.7-1,1c-0.4,0.4-0.8,0.8-1.2,1.2l-1-1L16.2,39.4z
	 M23.6,53.4l2.1,2.1l-1,1.1l-2.1-2.1L23.6,53.4z M28.2,60L26.1,58l1-1.1l2.1,2.1L28.2,60z M30.6,60.4l2.1,2.1l-1.1,1.1l-2.1-2.1
	L30.6,60.4z M35.2,67.1L33.1,65l1.1-1.1l2.1,2.1L35.2,67.1z M54.1,59.9l-0.4-0.4l0,0l-4-4c0,0,0,0,0,0l-1.2-1.2
	c-0.4-0.4-1-0.4-1.4,0s-0.4,1,0,1.4l4.6,4.6l-2.1,2.1l-5.7-5.7c-0.4-0.4-1-0.4-1.4,0s-0.4,1,0,1.4l1.2,1.2l3.3,3.3l-2.1,2.1
	l-3.3-3.3l-1.2-1.2c0,0,0,0,0,0L39.2,59c-0.4-0.4-1-0.4-1.4,0s-0.4,1,0,1.4l2.3,2.3l2.3,2.3l-2.1,2.1L16.6,43.8
	c0.4-0.4,0.8-0.8,1.2-1.2c0.6-0.6,1.2-1.2,1.7-1.7c0.3,0,0.5,0,0.8,0c3.5,0,6.4-2.9,6.4-6.4c0-0.3,0-0.5-0.1-0.8l2.6-2.6l2.7,2.7
	l-9.4,9.4c-0.2,0.2-0.3,0.5-0.3,0.8s0.2,0.5,0.4,0.7c0.2,0.2,5.7,4.3,15.2-5.3l18.5,18.5L54.1,59.9z M51.7,50.5L38.4,37.2
	c-0.2-0.2-0.4-0.3-0.7-0.3c-0.3,0-0.5,0.1-0.7,0.3c-6.1,6.5-10.2,6.7-12.1,6.3l12.2-12.1l4.8,0.5l-0.7,0.8c-0.4,0.4-0.4,1,0,1.4
	c0.4,0.4,1,0.4,1.4,0l5.7-6L61,40.6L51.7,50.5z M53.5,21.8c0,1.7,1.4,3.1,3.1,3.1s3.1-1.4,3.1-3.1s-1.4-3.1-3.1-3.1
	S53.5,20,53.5,21.8z M57.7,21.8c0,0.6-0.5,1.1-1.1,1.1s-1.1-0.5-1.1-1.1s0.5-1.1,1.1-1.1S57.7,21.1,57.7,21.8z"/>
</svg>
