<?xml version="1.0" encoding="utf-8"?>
<!-- Generator: Adobe Illustrator 23.1.0, SVG Export Plug-In . SVG Version: 6.00 Build 0)  -->
<svg version="1.1" id="Capa_1" xmlns="http://www.w3.org/2000/svg" xmlns:xlink="http://www.w3.org/1999/xlink" x="0px" y="0px"
	 viewBox="0 0 360 460" style="enable-background:new 0 0 360 460;" xml:space="preserve">
<style type="text/css">
	.st0{fill:#D69E47;}
</style>
<g>
	<g>
		<g>
			<path class="st0" d="M280.4,38.5c0-6.2-5.1-11.3-11.3-11.3s-11.3,5.1-11.3,11.3s5.1,11.3,11.3,11.3S280.4,44.8,280.4,38.5z
				 M261,38.5c0-4.5,3.6-8.1,8.1-8.1c4.5,0,8.1,3.6,8.1,8.1s-3.6,8.1-8.1,8.1C264.7,46.6,261,43,261,38.5z"/>
			<path class="st0" d="M338.5,85.3c0-6.2-5.1-11.3-11.3-11.3c-6.2,0-11.3,5.1-11.3,11.3c0,6.2,5.1,11.3,11.3,11.3
				C333.4,96.6,338.5,91.5,338.5,85.3z M319.1,85.3c0-4.5,3.6-8.1,8.1-8.1c4.5,0,8.1,3.6,8.1,8.1c0,4.5-3.6,8.1-8.1,8.1
				C322.7,93.4,319.1,89.8,319.1,85.3z"/>
			<path class="st0" d="M335.5,105.3l6.6-10.3c1.8-2.9,2.8-6.2,2.8-9.7c0-7.6-4.8-14-11.4-16.6c-1.1-18.8-16.4-33.4-35.4-33.4
				c-3.9,0-7.7,0.7-11.4,1.9c-0.7-9.2-8.3-16.4-17.7-16.4c-9.8,0-17.7,8-17.7,17.8c0,3.4,1,6.7,2.8,9.6l6.6,10.3
				c-6.5,1-12.7,3.4-12.7,7.4c0,4.2,6.7,6.8,14.7,7.7c1.5,18.4,16.7,32.6,35.3,32.6c6.4,0,12.6-1.7,18.1-5l2.6,4
				c-6.5,1-12.6,3.4-12.6,7.5c0,5.3,10.5,8.1,21,8.1s21-2.8,21-8.1C348.1,108.7,342,106.3,335.5,105.3z M286.7,40.7
				c2.1-0.8,4.3-1.4,6.6-1.7c-2.9,2.7-6.7,7.1-9.7,12.9c-0.5-0.2-0.9-0.4-1.4-0.7l1.9-2.9C285.5,46,286.4,43.4,286.7,40.7z
				 M282.2,54.8c-0.6,1.4-1.1,2.8-1.6,4.4c-1-0.2-2.1-0.4-3.1-0.6l3-4.6C281,54.2,281.5,54.5,282.2,54.8z M256.9,46.5
				c-1.5-2.3-2.3-5.1-2.3-7.9c0-8,6.5-14.5,14.5-14.5s14.5,6.5,14.5,14.6c0,2.8-0.8,5.5-2.3,7.8l-11.1,17.2c-0.5,0.8-1.8,0.8-2.3,0
				L256.9,46.5z M251.4,66c0-1.1,3.3-3.5,11.4-4.5l2.6,4c0.8,1.3,2.3,2.1,3.8,2.1s3-0.8,3.9-2.1l2.6-4c8,1,11.4,3.3,11.4,4.5
				c0,1.6-6.3,4.8-17.7,4.8S251.4,67.6,251.4,66z M274.1,92.3c-4.4-5-7.3-11.3-8-18.3c1,0,2,0.1,3,0.1c3.4,0,6.7-0.3,9.8-0.9
				c0.3,5.1,1.6,9.7,3.2,13.6C278.1,88.6,275.5,90.8,274.1,92.3z M276.4,94.6c1.2-1.3,3.4-3.2,7.1-4.9c3,5.8,6.9,10.2,9.8,12.9
				C286.8,101.7,281,98.8,276.4,94.6z M296.5,101.2c-2.6-2.4-6.8-6.7-9.9-12.7c2.7-0.8,6-1.5,9.9-1.6V101.2z M296.5,83.8
				c-4.5,0.1-8.2,0.9-11.4,1.9c-1.7-3.9-2.9-8.3-3.1-13.2c0,0,0,0,0,0h14.4V83.8z M296.5,69.2h-8c1-0.9,1.6-2,1.6-3.2
				c0-2.7-2.7-4.6-6.4-5.9c0.4-1.4,0.9-2.8,1.5-4.1c3.4,1.1,7.2,1.8,11.4,1.9V69.2z M296.5,54.6c-3.6-0.1-6.9-0.6-9.9-1.6
				c3.2-6,7.3-10.3,9.9-12.7V54.6z M322.2,49.3c4.5,5,7.3,11.4,8,18.6c-1-0.2-2-0.3-3-0.3c-2.7,0-5.2,0.6-7.5,1.7v-0.1h-2.3
				c-0.2-5.4-1.5-10.2-3.3-14.4C318.2,53,320.8,50.8,322.2,49.3z M319.9,47c-1.2,1.3-3.4,3.2-7.1,4.9c-3-5.8-6.9-10.2-9.8-12.9
				C309.5,39.9,315.3,42.8,319.9,47z M299.8,40.4c2.6,2.4,6.8,6.7,9.9,12.7c-2.7,0.8-6,1.5-9.9,1.6V40.4L299.8,40.4z M299.8,57.8
				c4.5-0.1,8.3-0.9,11.4-1.9c1.7,3.9,2.9,8.3,3.1,13.2h-14.5V57.8z M299.8,72.4h14.5c0,0.3,0,0.6-0.1,0.9
				c-2.9,3.1-4.7,7.3-4.7,11.9c-3-0.8-6.3-1.3-9.7-1.4V72.4z M299.8,101.2V87c3.6,0.1,6.9,0.7,9.9,1.6
				C306.5,94.6,302.4,98.9,299.8,101.2z M303,102.7c2.3-2.2,5.4-5.6,8.1-9.9c0.4,0.8,0.8,1.5,1.2,2.3l2.3,3.5
				C310.9,100.7,307,102.1,303,102.7z M315,93.3c-1.5-2.3-2.3-5.1-2.3-7.9c0-8,6.5-14.5,14.5-14.5c8,0,14.5,6.5,14.5,14.6
				c0,2.8-0.8,5.5-2.3,7.8l-11.1,17.2c-0.5,0.8-1.8,0.8-2.3,0L315,93.3z M327.2,117.6c-11.5,0-17.7-3.2-17.7-4.8
				c0-1.1,3.3-3.5,11.4-4.5l2.6,4c0.8,1.3,2.3,2.1,3.8,2.1c1.6,0,3-0.8,3.9-2.1l2.6-4c8,1,11.4,3.3,11.4,4.5
				C344.9,114.4,338.6,117.6,327.2,117.6z"/>
		</g>
	</g>
</g>
<g>
	<g>
		<polygon class="st0" points="142,94.6 146.6,94.6 146.6,46.3 146.6,42.9 150,42.9 227.5,42.9 227.5,37.7 142,37.7 		"/>
		<polygon class="st0" points="154.9,96.3 154.9,95.4 154.9,94.6 154.9,50.8 227.5,50.8 228.3,50.8 229.2,50.8 235.5,50.8 
			235.5,46.3 229.2,46.3 228.3,46.3 227.5,46.3 150,46.3 150,94.6 150,95.4 150,96.3 150,103.2 154.9,103.2 		"/>
		<path class="st0" d="M237.2,54.7h-1.7h-6.3h-0.8h-0.8h-68.8v39.9v0.8v0.8v6.9v1.7v1.7v4v1.3H242v-1.3V54.7h-3.1H237.2z
			 M163.8,106.6v-1.7v-1.7v-6.9v-0.8v-0.2h31.4v-0.7v-4.5h-31.4V59.9h63.7h0.8h0.8h6.3h1.4v30.3h-1.4h-6.3h-0.8h-0.8h-1.5v4.5v0.7
			h2.4h0.8h6.3h1.4v9.7v1.7v0.2h-73.1L163.8,106.6L163.8,106.6z"/>
		<path class="st0" d="M180.6,66.1c0.7,0,1.4,0.1,2.1,0.3c0.1-0.3,0.1-0.7,0.1-1c0,0-1-3.2-2.2-3.2h-0.1c-1.2,0-2.2,3.2-2.2,3.2
			c0,0.4,0.1,0.7,0.1,1C179.1,66.2,179.8,66.1,180.6,66.1z"/>
		<path class="st0" d="M190.7,73.3c-0.4,0-0.7,0.1-1,0.1c0.2,0.7,0.3,1.3,0.3,2.1s-0.1,1.4-0.3,2.1c0.3,0.1,0.7,0.1,1,0.1
			c0,0,3.2-1,3.2-2.2v-0.1C193.9,74.3,190.7,73.3,190.7,73.3z"/>
		<path class="st0" d="M180.6,84.9c-0.7,0-1.4-0.1-2.1-0.3c-0.1,0.3-0.1,0.7-0.1,1c0,0,1,3.2,2.2,3.2h0.1c1.2,0,2.2-3.2,2.2-3.2
			c0-0.4-0.1-0.7-0.1-1C181.9,84.8,181.2,84.9,180.6,84.9z"/>
		<path class="st0" d="M172.8,80.9c-0.3,0.2-0.5,0.4-0.8,0.7c0,0-1.4,3-0.5,3.8l0,0c0.9,0.8,3.7-0.9,3.7-0.9
			c0.3-0.3,0.4-0.6,0.6-0.8C174.7,83,173.6,82,172.8,80.9z"/>
		<path class="st0" d="M172.8,70.1c0.8-1.1,1.9-2.1,3-2.8c-0.2-0.3-0.3-0.6-0.6-0.8c0,0-2.9-1.7-3.7-0.9l0,0
			c-0.9,0.8,0.5,3.8,0.5,3.8C172.3,69.7,172.6,69.9,172.8,70.1z"/>
		<path class="st0" d="M188.2,70.1c0.3-0.2,0.5-0.4,0.8-0.7c0,0,1.4-3,0.5-3.8l0,0c-0.9-0.8-3.7,0.9-3.7,0.9
			c-0.3,0.3-0.4,0.6-0.6,0.8C186.4,68,187.5,69,188.2,70.1z"/>
		<path class="st0" d="M188.2,80.9c-0.8,1.1-1.9,2.1-3,2.8c0.2,0.3,0.3,0.6,0.6,0.8c0,0,2.9,1.7,3.7,0.9l0,0
			c0.9-0.8-0.5-3.8-0.5-3.8C188.8,81.3,188.5,81.1,188.2,80.9z"/>
		<path class="st0" d="M171.1,75.5c0-0.7,0.1-1.4,0.3-2.1c-0.3-0.1-0.7-0.1-1-0.1c0,0-3.2,1-3.2,2.2v0.1c0,1.2,3.2,2.2,3.2,2.2
			c0.4,0,0.7-0.1,1-0.1C171.2,76.9,171.1,76.2,171.1,75.5z"/>
		<path class="st0" d="M186.5,80.3c0.8-1,1.3-2.2,1.6-3.5c0.1-0.4,0.1-0.8,0.1-1.3c0-0.4-0.1-0.8-0.1-1.3c-0.2-1.3-0.8-2.5-1.6-3.5
			c-0.5-0.7-1.1-1.2-1.8-1.7c-0.9-0.6-1.9-0.9-2.9-1.1c-0.4-0.1-0.8-0.1-1.3-0.1s-0.8,0.1-1.3,0.1c-1.1,0.2-2.1,0.6-2.9,1.1
			c-0.7,0.5-1.3,1-1.8,1.7c-0.8,1-1.3,2.2-1.6,3.5c-0.1,0.4-0.1,0.8-0.1,1.3c0,0.4,0.1,0.8,0.1,1.3c0.2,1.3,0.8,2.5,1.6,3.5
			c0.5,0.7,1.1,1.2,1.8,1.7c0.9,0.6,1.9,0.9,2.9,1.1c0.4,0.1,0.8,0.1,1.3,0.1s0.8-0.1,1.3-0.1c1.1-0.2,2.1-0.6,2.9-1.1
			C185.4,81.5,186,80.9,186.5,80.3z"/>
		<path class="st0" d="M218.3,72c0.3,0,0.5-0.1,0.8-0.1c0.2,0,0.3,0,0.4,0c0.3,0,0.6,0,0.9,0.1c0.3,0,0.6,0.1,0.9,0.2
			c-0.1-1.3-1.1-2.3-2.4-2.3c-1.3,0-2.3,1-2.4,2.2c0.3,0,0.6,0,0.9-0.1C217.7,72,218,72,218.3,72z"/>
		<path class="st0" d="M215.8,94.6c-0.6-3.7-3.7-6.6-7.6-6.6c-3.9,0-7.1,2.9-7.6,6.6c0,0.3-0.1,0.6-0.1,0.8c0,0.1,0,0.2,0,0.3
			c0,0.2,0,0.4,0.1,0.6c0.3,3.4,2.6,6.1,5.8,6.9c0.6,0.2,1.2,0.3,1.9,0.3s1.3-0.1,1.9-0.3c3.2-0.8,5.6-3.5,5.8-6.9
			c0-0.2,0.1-0.4,0.1-0.6c0-0.1,0-0.2,0-0.3C215.9,95.2,215.9,94.9,215.8,94.6z M214.5,96.3c0,0.7-0.2,1.2-0.2,1.2
			c-0.2,0.2-0.4,0.4-0.6,0.6c-1.7,1.2-5.1,0.6-5.1,0.6c0.5-1-0.4-1.8-0.4-1.8c0.4-0.2,0.8-0.4,1.2-0.6c0.4-0.3,0.8-0.5,1.1-0.8
			c0.3-0.3,0.7-0.6,0.9-0.8c0.9-0.9,1.6-1.7,1.8-2.1c0.1-0.1,0.1-0.2,0.1-0.2c0.5,0.7,0.8,1.5,0.9,2.3c0.1,0.3,0.1,0.6,0.1,0.8
			C214.5,95.8,214.5,96,214.5,96.3z M202,94.6c0.1-0.6,0.8-3.2,2.9-4.1c0,0,0,0.1,0,0.2c0,0.6,0.1,2.3,0.5,3.9
			c0.1,0.3,0.2,0.6,0.3,0.8c0.1,0.3,0.3,0.6,0.4,0.8c0,0.1,0.1,0.1,0.1,0.2c0,0-1.3,0-1.4,1.4c0,0-1-0.4-1.9-1.5
			c-0.2-0.3-0.4-0.5-0.6-0.8c0-0.1-0.1-0.1-0.1-0.2c-0.1-0.2-0.2-0.3-0.3-0.5C202,94.7,202,94.7,202,94.6z M208.6,102.2
			c0,0-2,0.2-3.9-1l0.2-0.4l0.7-1.4c0,0,0.9,0.8,1.8,0.3l0.9,2L208.6,102.2z M207.9,98.8c-0.3,0.5-1,0.7-1.6,0.4s-0.9-1-0.6-1.6
			s1-0.7,1.6-0.4C207.9,97.5,208.2,98.2,207.9,98.8z"/>
		<path class="st0" d="M219.3,84c-0.2,0-0.4,0-0.7,0c-0.1,0-0.1,0-0.2,0c-0.3,0-0.6,0-0.8,0c-0.3,0-0.6,0-0.8,0v10.5v0.8v0.8v5.7
			c0,0.5,0.2,0.8,0.4,1.2c0.4,0.5,1,0.9,1.7,0.9s1.3-0.4,1.7-0.9c0.3-0.3,0.4-0.8,0.4-1.2v-5.7v-0.8v-0.8V84.1c-0.3,0-0.6,0-0.8,0
			C219.9,84.1,219.6,84,219.3,84z"/>
		<path class="st0" d="M203.7,84.3c0.1,0,0.2,0,0.3,0c2-0.6,7-1.8,13.1-1.9c0.4,0,0.8,0,1.1,0c0.2,0,0.3,0,0.4,0c0.3,0,0.7,0,1,0
			c0.4,0,0.8,0,1.1,0c2.2,0.1,4.4,0.3,6.7,0.8c0.3,0.1,0.6,0.1,0.8,0.2c0.3,0.1,0.6,0.1,0.8,0.2c0.9,0.2,1.9,0.5,2.9,0.8
			c0.1,0,0.2,0.1,0.3,0.1c0.3,0,0.4-0.3,0.2-0.7c-0.6-1-1.8-2.8-3.4-4.5c-0.3-0.3-0.6-0.6-0.8-0.9c-0.3-0.3-0.6-0.5-0.8-0.8
			c-1.8-1.6-3.9-3-6.3-3.5c-0.3-0.1-0.6-0.1-0.8-0.2c-0.3,0-0.6-0.1-0.9-0.1c-0.1,0-0.2,0-0.3,0c-0.2,0-0.4,0-0.7,0
			c-0.3,0-0.7,0-1,0.1c-0.3,0-0.6,0.1-0.8,0.1c-6.3,1-10.4,5.5-13.1,9.8C203.3,84.1,203.4,84.3,203.7,84.3z"/>
	</g>
</g>
<g>
	<g>
		<path class="st0" d="M41.3,268.7c-12,0-21.7,9.7-21.7,21.7s9.7,21.7,21.7,21.7c12,0,21.7-9.7,21.7-21.7S53.3,268.7,41.3,268.7z
			 M41.3,304c-7.5,0-13.5-6.1-13.5-13.5s6.1-13.5,13.5-13.5s13.5,6.1,13.5,13.5S48.8,304,41.3,304z"/>
	</g>
</g>
<g>
	<g>
		<polygon class="st0" points="84.8,350.6 74.7,349.1 70.2,340.1 65.7,349.1 55.7,350.6 63,357.7 61.3,367.7 70.2,363 79.2,367.7 
			77.5,357.7 		"/>
	</g>
</g>
<g>
	<g>
		<path class="st0" d="M75.2,324.1c4.3-11.9,6.5-22.6,6.5-32c0-22.3-18.1-40.4-40.4-40.4S0.9,269.9,0.9,292.2
			c0,16.2,6.3,35.9,18.7,58.6c9.1,16.7,18.1,28.7,18.5,29.2l3.3,4.3l3.3-4.3c0.1-0.1,1.3-1.7,3.2-4.5c5.6,6,13.6,9.7,22.4,9.7
			c16.9,0,30.7-13.8,30.7-30.7C101,339.2,89.8,326.5,75.2,324.1z M42.8,368.3c-0.5,0.8-1,1.5-1.5,2.2c-8.8-12.7-32.2-49.3-32.2-78.3
			c0-17.8,14.5-32.2,32.2-32.2s32.2,14.4,32.2,32.2c0,9.1-2.3,19.7-7,31.8c-15.2,1.8-27,14.8-27,30.5
			C39.5,359.4,40.7,364.1,42.8,368.3z M70.2,377c-12.4,0-22.6-10.1-22.6-22.6c0-12.4,10.1-22.6,22.6-22.6
			c12.4,0,22.6,10.1,22.6,22.6C92.8,366.9,82.7,377,70.2,377z"/>
	</g>
</g>
<path class="st0" d="M90.3,177.5h-25v-25c0-5.9-4.8-10.7-10.7-10.7H11.7c-5.9,0-10.7,4.8-10.7,10.7v92.9c0,2,1.6,3.6,3.6,3.6h23.2
	c1,0,1.8-0.8,1.8-1.8v-16c0-1.9,1.5-3.6,3.4-3.7c2-0.1,3.6,1.4,3.8,3.4c0,0.1,0,0.1,0,0.2v16.1c0,1,0.8,1.8,1.8,1.8h58.9
	c2,0,3.6-1.6,3.6-3.6v-57.2C101,182.3,96.2,177.5,90.3,177.5z M15.7,234.6c-2,0.2-3.7-1.1-4-3.1c-0.2-2,1.1-3.8,3.1-4
	c2-0.2,3.8,1.1,4,3.1c0,0.3,0,0.6,0,0.9C18.6,233.1,17.4,234.4,15.7,234.6z M15.7,216.7c-2,0.2-3.7-1.1-4-3.1c-0.2-2,1.1-3.8,3.1-4
	c2-0.2,3.8,1.1,4,3.1c0,0.3,0,0.6,0,0.9C18.6,215.3,17.4,216.5,15.7,216.7z M15.7,198.9c-2,0.2-3.7-1.1-4-3.1c-0.2-2,1.1-3.8,3.1-4
	s3.8,1.1,4,3.1c0,0.3,0,0.6,0,0.9C18.6,197.4,17.4,198.7,15.7,198.9z M15.7,181c-2,0.2-3.7-1.1-4-3.1c-0.2-2,1.1-3.8,3.1-4
	s3.8,1.1,4,3.1c0,0.3,0,0.6,0,0.9C18.6,179.5,17.4,180.8,15.7,181z M15.7,163.2c-2,0.2-3.7-1.1-4-3.1c-0.2-2,1.1-3.8,3.1-4
	c2-0.2,3.8,1.1,4,3.1c0,0.3,0,0.6,0,0.9C18.6,161.7,17.4,162.9,15.7,163.2z M33.6,216.7c-2,0.2-3.8-1.1-4-3.1c-0.2-2,1.1-3.8,3.1-4
	c2-0.2,3.8,1.1,4,3.1c0,0.3,0,0.6,0,0.9C36.5,215.3,35.2,216.5,33.6,216.7z M33.6,198.9c-2,0.2-3.8-1.1-4-3.1c-0.2-2,1.1-3.8,3.1-4
	c2-0.2,3.8,1.1,4,3.1c0,0.3,0,0.6,0,0.9C36.5,197.4,35.2,198.7,33.6,198.9z M33.6,181c-2,0.2-3.8-1.1-4-3.1c-0.2-2,1.1-3.8,3.1-4
	s3.8,1.1,4,3.1c0,0.3,0,0.6,0,0.9C36.5,179.5,35.2,180.8,33.6,181z M33.6,163.2c-2,0.2-3.8-1.1-4-3.1c-0.2-2,1.1-3.8,3.1-4
	c2-0.2,3.8,1.1,4,3.1c0,0.3,0,0.6,0,0.9C36.5,161.7,35.2,162.9,33.6,163.2z M51.5,234.6c-2,0.2-3.8-1.1-4-3.1c-0.2-2,1.1-3.8,3.1-4
	c2-0.2,3.8,1.1,4,3.1c0,0.3,0,0.6,0,0.9C54.3,233.1,53.1,234.4,51.5,234.6L51.5,234.6z M51.5,216.7c-2,0.2-3.8-1.1-4-3.1
	c-0.2-2,1.1-3.8,3.1-4c2-0.2,3.8,1.1,4,3.1c0,0.3,0,0.6,0,0.9C54.3,215.3,53.1,216.5,51.5,216.7L51.5,216.7z M51.5,198.9
	c-2,0.2-3.8-1.1-4-3.1c-0.2-2,1.1-3.8,3.1-4c2-0.2,3.8,1.1,4,3.1c0,0.3,0,0.6,0,0.9C54.3,197.4,53.1,198.7,51.5,198.9L51.5,198.9z
	 M51.5,181c-2,0.2-3.8-1.1-4-3.1c-0.2-2,1.1-3.8,3.1-4s3.8,1.1,4,3.1c0,0.3,0,0.6,0,0.9C54.3,179.5,53.1,180.8,51.5,181L51.5,181z
	 M51.5,163.2c-2,0.2-3.8-1.1-4-3.1c-0.2-2,1.1-3.8,3.1-4c2-0.2,3.8,1.1,4,3.1c0,0.3,0,0.6,0,0.9C54.3,161.7,53.1,162.9,51.5,163.2
	L51.5,163.2z M93,241.8H65.3v-57.1h25c2,0,3.6,1.6,3.6,3.6v52.7C93.8,241.4,93.4,241.8,93,241.8z"/>
<path class="st0" d="M83.1,221.5c-2,0-3.6,1.6-3.6,3.6c0,2,1.6,3.6,3.6,3.6c2,0,3.6-1.6,3.6-3.6C86.7,223.1,85.1,221.5,83.1,221.5z"
	/>
<path class="st0" d="M83.1,209.6c-2,0-3.6,1.6-3.6,3.6s1.6,3.6,3.6,3.6c2,0,3.6-1.6,3.6-3.6S85.1,209.6,83.1,209.6z"/>
<path class="st0" d="M83.1,191.8c-2,0-3.6,1.6-3.6,3.6s1.6,3.6,3.6,3.6c2,0,3.6-1.6,3.6-3.6S85.1,191.8,83.1,191.8z"/>
<path class="st0" d="M68.8,221.5c-2,0-3.6,1.6-3.6,3.6c0,2,1.6,3.6,3.6,3.6c2,0,3.6-1.6,3.6-3.6C72.4,223.1,70.8,221.5,68.8,221.5z"
	/>
<path class="st0" d="M68.8,209.6c-2,0-3.6,1.6-3.6,3.6s1.6,3.6,3.6,3.6c2,0,3.6-1.6,3.6-3.6S70.8,209.6,68.8,209.6z"/>
<path class="st0" d="M68.8,191.8c-2,0-3.6,1.6-3.6,3.6s1.6,3.6,3.6,3.6c2,0,3.6-1.6,3.6-3.6S70.8,191.8,68.8,191.8z"/>
<g>
	<g>
		<g>
			<path class="st0" d="M129.8,116.3H59v-50c0-2.3-1.9-4.2-4.2-4.2H38.1c-2.3,0-4.2,1.9-4.2,4.2v6.2c0,1.2,0.9,2.1,2.1,2.1h10.4v50
				c0,2.3,1.9,4.2,4.2,4.2h9.9c-0.4,1-0.5,2.1-0.5,3.1c0,5.2,4.2,9.4,9.4,9.4c5.2,0,9.4-4.2,9.4-9.4c0-1.1-0.2-2.1-0.5-3.1h24
				c-0.4,1-0.5,2.1-0.5,3.1c0,5.2,4.2,9.4,9.4,9.4s9.4-4.2,9.4-9.4c0-1.1-0.2-2.1-0.5-3.1h12c1.2,0,2.1-0.9,2.1-2.1v-6.2
				C134,118.1,132.1,116.3,129.8,116.3z M69.4,137.1c-2.9,0-5.2-2.3-5.2-5.2c0-1.4,0.5-2.7,1.5-3.7l0,0c1-1,2.3-1.5,3.7-1.5
				s2.7,0.5,3.7,1.5l0,0c1,1,1.5,2.3,1.5,3.7C74.6,134.8,72.3,137.1,69.4,137.1z M111.1,137.1c-2.9,0-5.2-2.3-5.2-5.2
				c0-1.4,0.5-2.7,1.5-3.7l0,0c1-1,2.3-1.5,3.7-1.5c1.4,0,2.7,0.5,3.7,1.5l0,0c1,1,1.5,2.3,1.5,3.7
				C116.3,134.8,113.9,137.1,111.1,137.1z M129.8,124.6h-12.9c-1.6-1.3-3.7-2.1-5.9-2.1s-4.2,0.7-5.9,2.1H75.3
				c-1.7-1.3-3.7-2.1-5.9-2.1s-4.2,0.7-5.9,2.1H50.6v-50h2.1v-4.2h-4.2H38.1v-4.2h16.7v52.1c0,1.2,0.9,2.1,2.1,2.1h72.9L129.8,124.6
				L129.8,124.6z"/>
			<rect x="67.3" y="129.8" class="st0" width="4.2" height="4.2"/>
			<rect x="109" y="129.8" class="st0" width="4.2" height="4.2"/>
			<path class="st0" d="M66.3,113.1h5.2h7.3h33.3h7.3h5.2c2.3,0,4.2-1.9,4.2-4.2V73.6c0-2.3-1.9-4.2-4.2-4.2h-5.2h-7.3h-6.2v-5.2
				h3.1c1.2,0,2.1-0.9,2.1-2.1v-6.2c0-1.2-0.9-2.1-2.1-2.1H81.9c-1.2,0-2.1,0.9-2.1,2.1v6.2c0,1.2,0.9,2.1,2.1,2.1H85v5.2h-6.2h-7.3
				h-5.2c-2.3,0-4.2,1.9-4.2,4.2V109C62.1,111.3,64,113.1,66.3,113.1z M121.5,73.6h3.1V109h-3.1V73.6z M114.2,73.6h3.1V109h-3.1
				V73.6z M84,60v-2.1h22.9V60H84z M101.7,64.2v5.2H89.2v-5.2H101.7z M80.9,73.6H110V109H80.9V73.6z M73.6,73.6h3.1V109h-3.1V73.6z
				 M66.3,73.6h3.1V109h-3.1V73.6z"/>
			<path class="st0" d="M94.4,90.2c1.2,0,2.1-0.9,2.1-2.1v-6.2h6.2v-4.2h-8.3H86c-1.2,0-2.1,0.9-2.1,2.1v8.3c0,1.2,0.9,2.1,2.1,2.1
				H94.4L94.4,90.2z M88.1,81.9h4.2v4.2h-4.2V81.9z"/>
			<path class="st0" d="M102.7,92.3h-8.3c-1.2,0-2.1,0.9-2.1,2.1v6.2H86v4.2h8.3h8.3c1.2,0,2.1-0.9,2.1-2.1v-8.3
				C104.8,93.2,103.9,92.3,102.7,92.3z M100.6,100.6h-4.2v-4.2h4.2V100.6z"/>
		</g>
	</g>
</g>
<g>
	<g>
		<path class="st0" d="M359.7,426.6c-0.1-0.3-2-6-5.1-12.3c-4.6-9.6-9.4-15.4-14.5-17.9c0,0-9.3-4.3-9.3-4.3l-4-3.4l-6.4,6.4l4,28.5
			c0,0.1,0,0.2-0.1,0.3l-4,5.6c-0.1,0.1-0.2,0.1-0.3,0.1s-0.2,0-0.3-0.1l-4-5.6c0-0.1-0.1-0.2-0.1-0.3l3.9-28.4l-6.5-6.5l-4.1,3.4
			c0,0-18,8.2-24.3,10c1-3.9,2.4-8.8,3.9-13.5c1.3-3.7-0.8-7.8-4.5-9c-3.7-1.3-7.8,0.8-9,4.5c-0.1,0.2-1.9,5.6-3.5,11.4
			c-3,11.1-3.2,15.7-0.7,19.1c1.5,2.1,3.8,3.3,6.3,3.3h0c4.2,0,12-2.1,20.1-5.1v24.9h45v-16c1.5,3.2,2.6,6.2,3.3,7.9
			c-0.3,1.5-0.9,4.3-2.3,8h15c1.4-4.7,1.6-7.8,1.7-8.3C360.1,428.4,360,427.4,359.7,426.6z"/>
		<path class="st0" d="M319.9,388.3c10.4,0,18.2-9.7,18.3-25.9c0.1-11.3-5.3-18-18.3-18c-13.1,0-18.5,6.7-18.3,18
			C301.7,378.6,309.5,388.3,319.9,388.3z"/>
		<path class="st0" d="M272.8,361.5c1,1.5,2.1,3,2.1,5.1l0.1,4c0,0.6,0.5,1.1,1.1,1.1h0.7c0.2,1.1,1.2,2,2.4,2c1.2,0,2.2-0.9,2.4-2
			h0.7c0.6,0,1.1-0.5,1.1-1.1l0.1-4c0.1-2.1,1.1-3.6,2.1-5.1c1.2-1.8,2.4-3.6,2.4-6.8c0-4.6-4-8.4-8.8-8.4c-4.9,0-8.9,3.8-8.9,8.4
			C270.4,357.9,271.6,359.7,272.8,361.5z M279.2,363.8l-1.3-7.7c0-0.2,0.1-0.4,0.2-0.5c0.1-0.1,0.3-0.2,0.4-0.2
			c0.1,0,0.3,0.1,0.3,0.2c0.1,0.2,0.3,0.3,0.5,0.3c0.2,0,0.4-0.1,0.5-0.3c0-0.1,0.2-0.2,0.3-0.2c0.1,0,0.3,0.1,0.4,0.2
			c0.1,0.1,0.2,0.3,0.1,0.5L279.2,363.8z M279.2,348.4c3.7,0,6.7,2.8,6.7,6.2c0,2.6-1,4-2.1,5.6c-0.9,1.4-2.1,3-2.4,5.2h-1.1
			l1.6-9.1c0,0,0,0,0,0c0.1-0.6-0.1-1.1-0.5-1.6c-0.4-0.4-0.9-0.7-1.4-0.7c-0.3,0-0.6,0.1-0.8,0.2c-0.3-0.1-0.5-0.2-0.8-0.2
			c-0.5,0-1,0.3-1.4,0.7c-0.4,0.4-0.5,1-0.5,1.6c0,0,0,0,0,0l1.6,9.1H277c-0.3-2.2-1.5-3.8-2.4-5.2c-1.1-1.6-2.1-3-2.1-5.6
			C272.5,351.2,275.5,348.4,279.2,348.4z"/>
		<path class="st0" d="M279.2,344.2c0.6,0,1-0.5,1-1v-5.9c0-0.6-0.5-1-1-1s-1,0.5-1,1l0,0v5.9c0,0.3,0.1,0.5,0.3,0.7
			C278.7,344.1,278.9,344.2,279.2,344.2z"/>
		<path class="st0" d="M287.3,347.2c0.3,0,0.6-0.1,0.8-0.4l3.7-4.5c0.4-0.4,0.3-1.1-0.1-1.5c-0.4-0.4-1.1-0.3-1.5,0.1l-3.7,4.5
			c-0.4,0.4-0.3,1.1,0.1,1.5C286.8,347.1,287.1,347.2,287.3,347.2z"/>
		<path class="st0" d="M290.6,353.8c0.1,0.5,0.5,0.8,1,0.8c0.1,0,0.1,0,0.2,0l5.8-1c0.6-0.1,0.9-0.6,0.8-1.2
			c-0.1-0.6-0.6-0.9-1.2-0.8l-5.8,1C290.9,352.7,290.5,353.2,290.6,353.8z"/>
		<path class="st0" d="M290.6,361.2c-0.5-0.3-1.1-0.1-1.4,0.4c-0.3,0.5-0.1,1.1,0.4,1.4l5.1,2.9c0.2,0.1,0.3,0.1,0.5,0.1
			c0.4,0,0.7-0.2,0.9-0.5c0.3-0.5,0.1-1.1-0.4-1.4L290.6,361.2z"/>
		<path class="st0" d="M269.2,361.5c-0.3-0.5-0.9-0.7-1.4-0.4l-5.1,2.9c-0.5,0.3-0.7,0.9-0.4,1.4c0.2,0.3,0.5,0.5,0.9,0.5
			c0.2,0,0.3,0,0.5-0.1l5.1-2.9C269.3,362.7,269.5,362,269.2,361.5z"/>
		<path class="st0" d="M266.8,354.6c0.5,0,0.9-0.3,1-0.8c0.1-0.6-0.3-1.1-0.8-1.2l-5.8-1c-0.6-0.1-1.1,0.3-1.2,0.8
			c-0.1,0.6,0.3,1.1,0.8,1.2l5.8,1C266.7,354.6,266.7,354.6,266.8,354.6z"/>
		<path class="st0" d="M270.3,346.8c0.2,0.3,0.5,0.4,0.8,0.4l0,0c0.2,0,0.5-0.1,0.7-0.3c0.4-0.4,0.5-1,0.1-1.5l-3.8-4.5
			c-0.4-0.4-1-0.5-1.5-0.1c-0.2,0.2-0.3,0.4-0.4,0.7s0,0.5,0.2,0.8L270.3,346.8z"/>
	</g>
</g>
<path class="st0" d="M277.7,402.7c-0.5-0.5-1.3-0.5-1.9-0.1l-2.7,2.4l-14.1-14.1c-0.5-0.5-1.3-0.5-1.9,0c-0.5,0.5-0.5,1.3,0,1.9
	l13.9,13.9l-6.9,6.2l-23.1-23.3l22.9-21.7c0.5-0.5,0.5-1.3,0-1.9c-0.5-0.5-1.3-0.5-1.9,0l-23.9,22.7c-0.3,0.3-0.4,0.5-0.4,0.9
	s0.1,0.7,0.4,0.9l2.1,2.1l-4.6,4.9l-9-0.9c-0.4,0-0.8,0.1-1.1,0.4l-3.7,3.6l-6.8-6.8l2.3-2.4c0.3-0.3,0.4-0.7,0.4-0.9
	c0-0.3-0.1-0.7-0.4-0.9L193.7,367c-0.5-0.5-1.3-0.5-1.9,0c-0.5,0.5-0.5,1.3,0,1.9l16,15.3l-23.6,23.2l-4.1-3.7
	c-0.5-0.5-1.3-0.4-1.9,0.1s-0.4,1.3,0.1,1.9l12.5,11.1c0.3,0.3,0.5,0.4,0.9,0.4s0.7-0.1,0.9-0.4l2.3-2.3l12.5,12.2l-2.3,2.3
	c-0.5,0.5-0.5,1.3,0,1.9l4.6,4.6l0,0l0,0l4.6,4.6l4.6,4.6l4.6,4.6c0.3,0.3,0.7,0.4,0.9,0.4c0.3,0,0.7-0.1,0.9-0.4l2.4-2.4l2.4,2.4
	c0.3,0.3,0.5,0.4,0.9,0.4s0.7-0.1,0.9-0.4l3.7-3.7l0.5,0.5c0.3,0.3,0.7,0.4,0.9,0.4c0.3,0,0.7-0.1,0.9-0.4l3.7-3.7l0.5,0.5
	c0.3,0.3,0.7,0.4,0.9,0.4c0.3,0,0.7-0.1,0.9-0.4l3.7-3.7l0.5,0.5c0.3,0.3,0.7,0.4,0.9,0.4c0.3,0,0.7-0.1,0.9-0.4l4.6-4.6
	c0.5-0.5,0.5-1.3,0-1.9l-6.9-6.9l12.5-13.3l2.4,2.4c0.3,0.3,0.7,0.4,0.9,0.4c0.3,0,0.7-0.1,0.9-0.4l12.5-11.1
	C278,404,278.2,403.2,277.7,402.7z M210.6,403.3c0,3.2-2.7,5.8-5.8,5.8c-1.3,0-2.5-0.4-3.4-1.2l8.1-8.1
	C210.2,400.8,210.6,402.1,210.6,403.3z M211.3,398l2.3-2.3l1.2,1.2l-2.4,2.5C212,399,211.6,398.4,211.3,398z M191.6,413.9l-5.4-4.8
	l23.6-23.1l4.9,4.6L191.6,413.9z M199.4,409.8c0.5,0.4,0.9,0.7,1.5,1.1c-0.4,0.4-0.8,0.9-1.3,1.3c-0.5,0.5-1.1,1.1-1.6,1.6l-1.3-1.3
	L199.4,409.8z M209.2,428.4l2.8,2.8l-1.3,1.5l-2.8-2.8L209.2,428.4z M215.3,437.1l-2.8-2.7l1.3-1.5l2.8,2.8L215.3,437.1z
	 M218.5,437.7l2.8,2.8l-1.5,1.5l-2.8-2.8L218.5,437.7z M224.6,446.6l-2.8-2.8l1.5-1.5l2.8,2.8L224.6,446.6z M249.7,437l-0.5-0.5l0,0
	l-5.3-5.3l0,0l-1.6-1.6c-0.5-0.5-1.3-0.5-1.9,0c-0.5,0.5-0.5,1.3,0,1.9l6.1,6.1l-2.8,2.8l-7.6-7.6c-0.5-0.5-1.3-0.5-1.9,0
	c-0.5,0.5-0.5,1.3,0,1.9l1.6,1.6l4.4,4.4l-2.8,2.8l-4.4-4.4l-1.6-1.6l0,0l-1.6-1.6c-0.5-0.5-1.3-0.5-1.9,0c-0.5,0.5-0.5,1.3,0,1.9
	l3.1,3.1l3.1,3.1l-2.8,2.8l-31.4-30.9c0.5-0.5,1.1-1.1,1.6-1.6c0.8-0.8,1.6-1.6,2.3-2.3c0.4,0,0.7,0,1.1,0c4.6,0,8.5-3.8,8.5-8.5
	c0-0.4,0-0.7-0.1-1.1l3.4-3.4l3.6,3.6l-12.5,12.5c-0.3,0.3-0.4,0.7-0.4,1.1s0.3,0.7,0.5,0.9c0.3,0.3,7.6,5.7,20.2-7l24.5,24.5
	L249.7,437z M246.5,424.5l-17.6-17.6c-0.3-0.3-0.5-0.4-0.9-0.4s-0.7,0.1-0.9,0.4c-8.1,8.6-13.5,8.9-16,8.4l16.2-16l6.4,0.7l-0.9,1.1
	c-0.5,0.5-0.5,1.3,0,1.9c0.5,0.5,1.3,0.5,1.9,0l7.6-8l16.8,16.6L246.5,424.5z M248.9,386.5c0,2.3,1.9,4.1,4.1,4.1
	c2.3,0,4.1-1.9,4.1-4.1s-1.9-4.1-4.1-4.1C250.7,382.4,248.9,384.1,248.9,386.5z M254.4,386.5c0,0.8-0.7,1.5-1.5,1.5
	s-1.5-0.7-1.5-1.5s0.7-1.5,1.5-1.5S254.4,385.6,254.4,386.5z"/>
<g transform="translate(1 1)">
	<g>
		<g>
			<path class="st0" d="M150.3,419.5h-34.6c-1.2,0-1.9,0.8-1.9,1.9v7.7c0,1.2,0.8,1.9,1.9,1.9h34.6c1.2,0,1.9-0.8,1.9-1.9v-7.7
				C152.2,420.3,151.4,419.5,150.3,419.5z M148.4,427.2h-30.8v-3.8h30.8L148.4,427.2L148.4,427.2z"/>
			<path class="st0" d="M175.7,409.7h-3.1l-2.9-36.5c-1-11-10-19-21-19h-0.2h-0.3c-0.9-6.6-6.5-11.5-13.3-11.5h-3.8
				c-6.9,0-12.4,5-13.3,11.5c-10.7,0.1-19.6,8.2-20.7,18.8c0,0.1,0,0.2,0,0.3c0,0,0,0,0,0.1l-3.6,36.6h-3.2c-4,0-7.3,3.3-7.3,7.3
				v6.5c0,7.3,5.8,13.1,13.1,13.1h6.6c2.5,1.3,5.3,1.9,8.2,1.9h45.2c2.8,0,5.6-0.7,8.1-1.9h5.8c7.3,0,13.1-5.8,13.1-13.3v-6.5
				C183,413,179.7,409.7,175.7,409.7z M152.2,371.5c1.2,0,1.9-0.8,1.9-1.9s-0.8-1.9-1.9-1.9h-7.7c-1.2,0-1.9,0.8-1.9,1.9
				s0.8,1.9,1.9,1.9h1.9v20.3c-4.2,1.8-8.7,2.8-13.5,2.8c-4.7,0-9.3-0.9-13.5-2.7v-20.4h1.9c1.2,0,1.9-0.8,1.9-1.9s-0.8-1.9-1.9-1.9
				h-7.7c-1.2,0-1.9,0.8-1.9,1.9s0.8,1.9,1.9,1.9h1.9v18.5c-6.5-3.8-11.8-9.6-14.8-17c1.1-8.4,8-14.6,16.3-15c0.3,0,0.5,0,0.8,0l0,0
				h30.6c0.3,0,0.5,0,0.8,0c0.2,0,0.3,0,0.4,0c0.1,0,0.2,0,0.3,0c0.2,0,0.4,0,0.7,0.1c0,0,0.1,0,0.1,0c7.2,1,13,6.4,14.6,13.5
				c-2.9,7.8-8.3,14.2-15.2,18.2v-18.4H152.2L152.2,371.5z M131.1,346.5h3.8c4.6,0,8.5,3.3,9.4,7.7h-22.7
				C122.6,349.7,126.4,346.5,131.1,346.5z M86.8,423.8v-6.5c0-1.9,1.5-3.5,3.5-3.5h2.8l-0.5,5c0,0.5-0.1,1-0.1,1.5
				c0,4.5,1.5,8.7,4.5,12.1c0.1,0.2,0.3,0.3,0.4,0.5c0.1,0.1,0.1,0.1,0.2,0.2h-1.5C90.9,433,86.8,429,86.8,423.8z M111.1,434.9
				c-4,0-8.1-1.7-10.8-4.8c-2.9-2.9-4.2-6.9-3.8-11l0.8-7.1c0-0.2,0-0.4-0.1-0.5l2.9-31.7c3.8,6.3,9.2,11.3,15.6,14.5v7.9h-1.9
				l-1.9,1.9v7.7l1.9,1.9h7.7l1.9-1.9v-7.7l-1.9-1.9h-1.9V396c4.2,1.6,8.8,2.4,13.5,2.4c4.7,0,9.2-0.9,13.5-2.4v6.3h-1.9l-1.9,1.9
				v7.7l1.9,1.9h7.7l1.9-1.9v-7.7l-1.9-1.9h-1.9v-8c6.6-3.4,12.2-8.6,16-15.2l3.2,40.7c0.1,0.7,0.1,1.5,0,2.2
				c-0.1,2.2-0.7,4.3-1.6,6.1c-0.6,1.1-1.3,2-2.1,2.9c-0.9,0.9-1.8,1.6-2.9,2.2c-0.1,0-0.1,0.1-0.2,0.1c-0.1,0-0.1,0.1-0.2,0.1
				c-2,1-4.2,1.6-6.6,1.6L111.1,434.9L111.1,434.9z M119.5,406.1v3.8h-3.8v-3.8H119.5z M150.3,406.1v3.8h-3.8v-3.8H150.3z
				 M179.1,423.8c0,5.2-4.2,9.2-9.2,9.2h-0.8c1.3-1.5,2.3-3.3,3-5.2c0.8-2.1,1.3-4.4,1.3-6.8c0-0.7,0-1.4-0.1-2.2l-0.4-5h2.7
				c1.9,0,3.5,1.5,3.5,3.5V423.8L179.1,423.8z"/>
		</g>
	</g>
</g>
</svg>
