<?xml version="1.0" encoding="utf-8"?>
<!-- Generator: Adobe Illustrator 23.1.0, SVG Export Plug-In . SVG Version: 6.00 Build 0)  -->
<svg version="1.1" id="Capa_1" xmlns="http://www.w3.org/2000/svg" xmlns:xlink="http://www.w3.org/1999/xlink" x="0px" y="0px"
	 viewBox="0 0 360 460" style="enable-background:new 0 0 360 460;" xml:space="preserve">
<style type="text/css">
	.st0{fill:#D69E47;}
</style>
<g>
	<g>
		<g>
			<path class="st0" d="M272.4,54.5c0-6.2-5.1-11.3-11.3-11.3s-11.3,5.1-11.3,11.3s5.1,11.3,11.3,11.3S272.4,60.8,272.4,54.5z
				 M253,54.5c0-4.5,3.6-8.1,8.1-8.1c4.5,0,8.1,3.6,8.1,8.1s-3.6,8.1-8.1,8.1C256.7,62.6,253,59,253,54.5z"/>
			<path class="st0" d="M330.5,101.3c0-6.2-5.1-11.3-11.3-11.3c-6.2,0-11.3,5.1-11.3,11.3c0,6.2,5.1,11.3,11.3,11.3
				C325.4,112.6,330.5,107.5,330.5,101.3z M311.1,101.3c0-4.5,3.6-8.1,8.1-8.1c4.5,0,8.1,3.6,8.1,8.1c0,4.5-3.6,8.1-8.1,8.1
				C314.7,109.4,311.1,105.8,311.1,101.3z"/>
			<path class="st0" d="M327.5,121.3l6.6-10.3c1.8-2.9,2.8-6.2,2.8-9.7c0-7.6-4.8-14-11.4-16.6c-1.1-18.8-16.4-33.4-35.4-33.4
				c-3.9,0-7.7,0.7-11.4,1.9c-0.7-9.2-8.3-16.4-17.7-16.4c-9.8,0-17.7,8-17.7,17.8c0,3.4,1,6.7,2.8,9.6l6.6,10.3
				c-6.5,1-12.7,3.4-12.7,7.4c0,4.2,6.7,6.8,14.7,7.7c1.5,18.4,16.7,32.6,35.3,32.6c6.4,0,12.6-1.7,18.1-5l2.6,4
				c-6.5,1-12.6,3.4-12.6,7.5c0,5.3,10.5,8.1,21,8.1s21-2.8,21-8.1C340.1,124.7,334,122.3,327.5,121.3z M278.7,56.7
				c2.1-0.8,4.3-1.4,6.6-1.7c-2.9,2.7-6.7,7.1-9.7,12.9c-0.5-0.2-0.9-0.4-1.4-0.7l1.9-2.9C277.5,62,278.4,59.4,278.7,56.7z
				 M274.2,70.8c-0.6,1.4-1.1,2.8-1.6,4.4c-1-0.2-2.1-0.4-3.1-0.6l3-4.6C273,70.2,273.5,70.5,274.2,70.8z M248.9,62.5
				c-1.5-2.3-2.3-5.1-2.3-7.9c0-8,6.5-14.5,14.5-14.5s14.5,6.5,14.5,14.6c0,2.8-0.8,5.5-2.3,7.8l-11.1,17.2c-0.5,0.8-1.8,0.8-2.3,0
				L248.9,62.5z M243.4,82c0-1.1,3.3-3.5,11.4-4.5l2.6,4c0.8,1.3,2.3,2.1,3.8,2.1s3-0.8,3.9-2.1l2.6-4c8,1,11.4,3.3,11.4,4.5
				c0,1.6-6.3,4.8-17.7,4.8C249.7,86.8,243.4,83.6,243.4,82z M266.1,108.3c-4.4-5-7.3-11.3-8-18.3c1,0,2,0.1,3,0.1
				c3.4,0,6.7-0.3,9.8-0.9c0.3,5.1,1.6,9.7,3.2,13.6C270.1,104.6,267.5,106.8,266.1,108.3z M268.4,110.6c1.2-1.3,3.4-3.2,7.1-4.9
				c3,5.8,6.9,10.2,9.8,12.9C278.8,117.7,273,114.8,268.4,110.6z M288.5,117.2c-2.6-2.4-6.8-6.7-9.9-12.7c2.7-0.8,6-1.5,9.9-1.6
				V117.2z M288.5,99.8c-4.5,0.1-8.2,0.9-11.4,1.9c-1.7-3.9-2.9-8.3-3.1-13.2c0,0,0,0,0,0h14.4V99.8z M288.5,85.2h-8
				c1-0.9,1.6-2,1.6-3.2c0-2.7-2.7-4.6-6.4-5.9c0.4-1.4,0.9-2.8,1.5-4.1c3.4,1.1,7.2,1.8,11.4,1.9V85.2z M288.5,70.6
				c-3.6-0.1-6.9-0.6-9.9-1.6c3.2-6,7.3-10.3,9.9-12.7V70.6z M314.2,65.3c4.5,5,7.3,11.4,8,18.6c-1-0.2-2-0.3-3-0.3
				c-2.7,0-5.2,0.6-7.5,1.7v-0.1h-2.3c-0.2-5.4-1.5-10.2-3.3-14.4C310.2,69,312.8,66.8,314.2,65.3z M311.9,63
				c-1.2,1.3-3.4,3.2-7.1,4.9c-3-5.8-6.9-10.2-9.8-12.9C301.5,55.9,307.3,58.8,311.9,63z M291.8,56.4c2.6,2.4,6.8,6.7,9.9,12.7
				c-2.7,0.8-6,1.5-9.9,1.6V56.4L291.8,56.4z M291.8,73.8c4.5-0.1,8.3-0.9,11.4-1.9c1.7,3.9,2.9,8.3,3.1,13.2h-14.5V73.8z
				 M291.8,88.4h14.5c0,0.3,0,0.6-0.1,0.9c-2.9,3.1-4.7,7.3-4.7,11.9c-3-0.8-6.3-1.3-9.7-1.4V88.4z M291.8,117.2V103
				c3.6,0.1,6.9,0.7,9.9,1.6C298.5,110.6,294.4,114.9,291.8,117.2z M295,118.7c2.3-2.2,5.4-5.6,8.1-9.9c0.4,0.8,0.8,1.5,1.2,2.3
				l2.3,3.5C302.9,116.7,299,118.1,295,118.7z M307,109.3c-1.5-2.3-2.3-5.1-2.3-7.9c0-8,6.5-14.5,14.5-14.5c8,0,14.5,6.5,14.5,14.6
				c0,2.8-0.8,5.5-2.3,7.8l-11.1,17.2c-0.5,0.8-1.8,0.8-2.3,0L307,109.3z M319.2,133.6c-11.5,0-17.7-3.2-17.7-4.8
				c0-1.1,3.3-3.5,11.4-4.5l2.6,4c0.8,1.3,2.3,2.1,3.8,2.1c1.6,0,3-0.8,3.9-2.1l2.6-4c8,1,11.4,3.3,11.4,4.5
				C336.9,130.4,330.6,133.6,319.2,133.6z"/>
		</g>
	</g>
</g>
<g>
	<g>
		<polygon class="st0" points="132,92.6 136.6,92.6 136.6,44.3 136.6,40.9 140,40.9 217.5,40.9 217.5,35.7 132,35.7 		"/>
		<polygon class="st0" points="144.9,94.3 144.9,93.4 144.9,92.6 144.9,48.8 217.5,48.8 218.3,48.8 219.2,48.8 225.5,48.8 
			225.5,44.3 219.2,44.3 218.3,44.3 217.5,44.3 140,44.3 140,92.6 140,93.4 140,94.3 140,101.2 144.9,101.2 		"/>
		<path class="st0" d="M227.2,52.7h-1.7h-6.3h-0.8h-0.8h-68.8v39.9v0.8v0.8v6.9v1.7v1.7v4v1.3H232v-1.3V52.7h-3.1H227.2z
			 M153.8,104.6v-1.7v-1.7v-6.9v-0.8v-0.2h31.4v-0.7v-4.5h-31.4V57.9h63.7h0.8h0.8h6.3h1.4v30.3h-1.4h-6.3h-0.8h-0.8h-1.5v4.5v0.7
			h2.4h0.8h6.3h1.4v9.7v1.7v0.2h-73.1L153.8,104.6L153.8,104.6z"/>
		<path class="st0" d="M170.6,64.1c0.7,0,1.4,0.1,2.1,0.3c0.1-0.3,0.1-0.7,0.1-1c0,0-1-3.2-2.2-3.2h-0.1c-1.2,0-2.2,3.2-2.2,3.2
			c0,0.4,0.1,0.7,0.1,1C169.1,64.2,169.8,64.1,170.6,64.1z"/>
		<path class="st0" d="M180.7,71.3c-0.4,0-0.7,0.1-1,0.1c0.2,0.7,0.3,1.3,0.3,2.1s-0.1,1.4-0.3,2.1c0.3,0.1,0.7,0.1,1,0.1
			c0,0,3.2-1,3.2-2.2v-0.1C183.9,72.3,180.7,71.3,180.7,71.3z"/>
		<path class="st0" d="M170.6,82.9c-0.7,0-1.4-0.1-2.1-0.3c-0.1,0.3-0.1,0.7-0.1,1c0,0,1,3.2,2.2,3.2h0.1c1.2,0,2.2-3.2,2.2-3.2
			c0-0.4-0.1-0.7-0.1-1C171.9,82.8,171.2,82.9,170.6,82.9z"/>
		<path class="st0" d="M162.8,78.9c-0.3,0.2-0.5,0.4-0.8,0.7c0,0-1.4,3-0.5,3.8l0,0c0.9,0.8,3.7-0.9,3.7-0.9
			c0.3-0.3,0.4-0.6,0.6-0.8C164.7,81,163.6,80,162.8,78.9z"/>
		<path class="st0" d="M162.8,68.1c0.8-1.1,1.9-2.1,3-2.8c-0.2-0.3-0.3-0.6-0.6-0.8c0,0-2.9-1.7-3.7-0.9l0,0
			c-0.9,0.8,0.5,3.8,0.5,3.8C162.3,67.7,162.6,67.9,162.8,68.1z"/>
		<path class="st0" d="M178.2,68.1c0.3-0.2,0.5-0.4,0.8-0.7c0,0,1.4-3,0.5-3.8l0,0c-0.9-0.8-3.7,0.9-3.7,0.9
			c-0.3,0.3-0.4,0.6-0.6,0.8C176.4,66,177.5,67,178.2,68.1z"/>
		<path class="st0" d="M178.2,78.9c-0.8,1.1-1.9,2.1-3,2.8c0.2,0.3,0.3,0.6,0.6,0.8c0,0,2.9,1.7,3.7,0.9l0,0
			c0.9-0.8-0.5-3.8-0.5-3.8C178.8,79.3,178.5,79.1,178.2,78.9z"/>
		<path class="st0" d="M161.1,73.5c0-0.7,0.1-1.4,0.3-2.1c-0.3-0.1-0.7-0.1-1-0.1c0,0-3.2,1-3.2,2.2v0.1c0,1.2,3.2,2.2,3.2,2.2
			c0.4,0,0.7-0.1,1-0.1C161.2,74.9,161.1,74.2,161.1,73.5z"/>
		<path class="st0" d="M176.5,78.3c0.8-1,1.3-2.2,1.6-3.5c0.1-0.4,0.1-0.8,0.1-1.3c0-0.4-0.1-0.8-0.1-1.3c-0.2-1.3-0.8-2.5-1.6-3.5
			c-0.5-0.7-1.1-1.2-1.8-1.7c-0.9-0.6-1.9-0.9-2.9-1.1c-0.4-0.1-0.8-0.1-1.3-0.1s-0.8,0.1-1.3,0.1c-1.1,0.2-2.1,0.6-2.9,1.1
			c-0.7,0.5-1.3,1-1.8,1.7c-0.8,1-1.3,2.2-1.6,3.5c-0.1,0.4-0.1,0.8-0.1,1.3c0,0.4,0.1,0.8,0.1,1.3c0.2,1.3,0.8,2.5,1.6,3.5
			c0.5,0.7,1.1,1.2,1.8,1.7c0.9,0.6,1.9,0.9,2.9,1.1c0.4,0.1,0.8,0.1,1.3,0.1s0.8-0.1,1.3-0.1c1.1-0.2,2.1-0.6,2.9-1.1
			C175.4,79.5,176,78.9,176.5,78.3z"/>
		<path class="st0" d="M208.3,70c0.3,0,0.5-0.1,0.8-0.1c0.2,0,0.3,0,0.4,0c0.3,0,0.6,0,0.9,0.1c0.3,0,0.6,0.1,0.9,0.2
			c-0.1-1.3-1.1-2.3-2.4-2.3c-1.3,0-2.3,1-2.4,2.2c0.3,0,0.6,0,0.9-0.1C207.7,70,208,70,208.3,70z"/>
		<path class="st0" d="M205.8,92.6c-0.6-3.7-3.7-6.6-7.6-6.6c-3.9,0-7.1,2.9-7.6,6.6c0,0.3-0.1,0.6-0.1,0.8c0,0.1,0,0.2,0,0.3
			c0,0.2,0,0.4,0.1,0.6c0.3,3.4,2.6,6.1,5.8,6.9c0.6,0.2,1.2,0.3,1.9,0.3s1.3-0.1,1.9-0.3c3.2-0.8,5.6-3.5,5.8-6.9
			c0-0.2,0.1-0.4,0.1-0.6c0-0.1,0-0.2,0-0.3C205.9,93.2,205.9,92.9,205.8,92.6z M204.5,94.3c0,0.7-0.2,1.2-0.2,1.2
			c-0.2,0.2-0.4,0.4-0.6,0.6c-1.7,1.2-5.1,0.6-5.1,0.6c0.5-1-0.4-1.8-0.4-1.8c0.4-0.2,0.8-0.4,1.2-0.6c0.4-0.3,0.8-0.5,1.1-0.8
			c0.3-0.3,0.7-0.6,0.9-0.8c0.9-0.9,1.6-1.7,1.8-2.1c0.1-0.1,0.1-0.2,0.1-0.2c0.5,0.7,0.8,1.5,0.9,2.3c0.1,0.3,0.1,0.6,0.1,0.8
			C204.5,93.8,204.5,94,204.5,94.3z M192,92.6c0.1-0.6,0.8-3.2,2.9-4.1c0,0,0,0.1,0,0.2c0,0.6,0.1,2.3,0.5,3.9
			c0.1,0.3,0.2,0.6,0.3,0.8c0.1,0.3,0.3,0.6,0.4,0.8c0,0.1,0.1,0.1,0.1,0.2c0,0-1.3,0-1.4,1.4c0,0-1-0.4-1.9-1.5
			c-0.2-0.3-0.4-0.5-0.6-0.8c0-0.1-0.1-0.1-0.1-0.2c-0.1-0.2-0.2-0.3-0.3-0.5C192,92.7,192,92.7,192,92.6z M198.6,100.2
			c0,0-2,0.2-3.9-1l0.2-0.4l0.7-1.4c0,0,0.9,0.8,1.8,0.3l0.9,2L198.6,100.2z M197.9,96.8c-0.3,0.5-1,0.7-1.6,0.4s-0.9-1-0.6-1.6
			s1-0.7,1.6-0.4C197.9,95.5,198.2,96.2,197.9,96.8z"/>
		<path class="st0" d="M209.3,82c-0.2,0-0.4,0-0.7,0c-0.1,0-0.1,0-0.2,0c-0.3,0-0.6,0-0.8,0c-0.3,0-0.6,0-0.8,0v10.5v0.8v0.8v5.7
			c0,0.5,0.2,0.8,0.4,1.2c0.4,0.5,1,0.9,1.7,0.9s1.3-0.4,1.7-0.9c0.3-0.3,0.4-0.8,0.4-1.2v-5.7v-0.8v-0.8V82.1c-0.3,0-0.6,0-0.8,0
			C209.9,82.1,209.6,82,209.3,82z"/>
		<path class="st0" d="M193.7,82.3c0.1,0,0.2,0,0.3,0c2-0.6,7-1.8,13.1-1.9c0.4,0,0.8,0,1.1,0c0.2,0,0.3,0,0.4,0c0.3,0,0.7,0,1,0
			c0.4,0,0.8,0,1.1,0c2.2,0.1,4.4,0.3,6.7,0.8c0.3,0.1,0.6,0.1,0.8,0.2c0.3,0.1,0.6,0.1,0.8,0.2c0.9,0.2,1.9,0.5,2.9,0.8
			c0.1,0,0.2,0.1,0.3,0.1c0.3,0,0.4-0.3,0.2-0.7c-0.6-1-1.8-2.8-3.4-4.5c-0.3-0.3-0.6-0.6-0.8-0.9c-0.3-0.3-0.6-0.5-0.8-0.8
			c-1.8-1.6-3.9-3-6.3-3.5c-0.3-0.1-0.6-0.1-0.8-0.2c-0.3,0-0.6-0.1-0.9-0.1c-0.1,0-0.2,0-0.3,0c-0.2,0-0.4,0-0.7,0
			c-0.3,0-0.7,0-1,0.1c-0.3,0-0.6,0.1-0.8,0.1c-6.3,1-10.4,5.5-13.1,9.8C193.3,82.1,193.4,82.3,193.7,82.3z"/>
	</g>
</g>
<g>
	<g>
		<path class="st0" d="M41.3,268.7c-12,0-21.7,9.7-21.7,21.7s9.7,21.7,21.7,21.7c12,0,21.7-9.7,21.7-21.7S53.3,268.7,41.3,268.7z
			 M41.3,304c-7.5,0-13.5-6.1-13.5-13.5s6.1-13.5,13.5-13.5s13.5,6.1,13.5,13.5S48.8,304,41.3,304z"/>
	</g>
</g>
<g>
	<g>
		<polygon class="st0" points="84.8,350.6 74.7,349.1 70.2,340.1 65.7,349.1 55.7,350.6 63,357.7 61.3,367.7 70.2,363 79.2,367.7 
			77.5,357.7 		"/>
	</g>
</g>
<g>
	<g>
		<path class="st0" d="M75.2,324.1c4.3-11.9,6.5-22.6,6.5-32c0-22.3-18.1-40.4-40.4-40.4S0.9,269.9,0.9,292.2
			c0,16.2,6.3,35.9,18.7,58.6c9.1,16.7,18.1,28.7,18.5,29.2l3.3,4.3l3.3-4.3c0.1-0.1,1.3-1.7,3.2-4.5c5.6,6,13.6,9.7,22.4,9.7
			c16.9,0,30.7-13.8,30.7-30.7C101,339.2,89.8,326.5,75.2,324.1z M42.8,368.3c-0.5,0.8-1,1.5-1.5,2.2c-8.8-12.7-32.2-49.3-32.2-78.3
			c0-17.8,14.5-32.2,32.2-32.2s32.2,14.4,32.2,32.2c0,9.1-2.3,19.7-7,31.8c-15.2,1.8-27,14.8-27,30.5
			C39.5,359.4,40.7,364.1,42.8,368.3z M70.2,377c-12.4,0-22.6-10.1-22.6-22.6c0-12.4,10.1-22.6,22.6-22.6
			c12.4,0,22.6,10.1,22.6,22.6C92.8,366.9,82.7,377,70.2,377z"/>
	</g>
</g>
<path class="st0" d="M90.3,177.5h-25v-25c0-5.9-4.8-10.7-10.7-10.7H11.7c-5.9,0-10.7,4.8-10.7,10.7v92.9c0,2,1.6,3.6,3.6,3.6h23.2
	c1,0,1.8-0.8,1.8-1.8v-16c0-1.9,1.5-3.6,3.4-3.7c2-0.1,3.6,1.4,3.8,3.4c0,0.1,0,0.1,0,0.2v16.1c0,1,0.8,1.8,1.8,1.8h58.9
	c2,0,3.6-1.6,3.6-3.6v-57.2C101,182.3,96.2,177.5,90.3,177.5z M15.7,234.6c-2,0.2-3.7-1.1-4-3.1c-0.2-2,1.1-3.8,3.1-4
	c2-0.2,3.8,1.1,4,3.1c0,0.3,0,0.6,0,0.9C18.6,233.1,17.4,234.4,15.7,234.6z M15.7,216.7c-2,0.2-3.7-1.1-4-3.1c-0.2-2,1.1-3.8,3.1-4
	c2-0.2,3.8,1.1,4,3.1c0,0.3,0,0.6,0,0.9C18.6,215.3,17.4,216.5,15.7,216.7z M15.7,198.9c-2,0.2-3.7-1.1-4-3.1c-0.2-2,1.1-3.8,3.1-4
	s3.8,1.1,4,3.1c0,0.3,0,0.6,0,0.9C18.6,197.4,17.4,198.7,15.7,198.9z M15.7,181c-2,0.2-3.7-1.1-4-3.1c-0.2-2,1.1-3.8,3.1-4
	s3.8,1.1,4,3.1c0,0.3,0,0.6,0,0.9C18.6,179.5,17.4,180.8,15.7,181z M15.7,163.2c-2,0.2-3.7-1.1-4-3.1c-0.2-2,1.1-3.8,3.1-4
	c2-0.2,3.8,1.1,4,3.1c0,0.3,0,0.6,0,0.9C18.6,161.7,17.4,162.9,15.7,163.2z M33.6,216.7c-2,0.2-3.8-1.1-4-3.1c-0.2-2,1.1-3.8,3.1-4
	c2-0.2,3.8,1.1,4,3.1c0,0.3,0,0.6,0,0.9C36.5,215.3,35.2,216.5,33.6,216.7z M33.6,198.9c-2,0.2-3.8-1.1-4-3.1c-0.2-2,1.1-3.8,3.1-4
	c2-0.2,3.8,1.1,4,3.1c0,0.3,0,0.6,0,0.9C36.5,197.4,35.2,198.7,33.6,198.9z M33.6,181c-2,0.2-3.8-1.1-4-3.1c-0.2-2,1.1-3.8,3.1-4
	s3.8,1.1,4,3.1c0,0.3,0,0.6,0,0.9C36.5,179.5,35.2,180.8,33.6,181z M33.6,163.2c-2,0.2-3.8-1.1-4-3.1c-0.2-2,1.1-3.8,3.1-4
	c2-0.2,3.8,1.1,4,3.1c0,0.3,0,0.6,0,0.9C36.5,161.7,35.2,162.9,33.6,163.2z M51.5,234.6c-2,0.2-3.8-1.1-4-3.1c-0.2-2,1.1-3.8,3.1-4
	c2-0.2,3.8,1.1,4,3.1c0,0.3,0,0.6,0,0.9C54.3,233.1,53.1,234.4,51.5,234.6L51.5,234.6z M51.5,216.7c-2,0.2-3.8-1.1-4-3.1
	c-0.2-2,1.1-3.8,3.1-4c2-0.2,3.8,1.1,4,3.1c0,0.3,0,0.6,0,0.9C54.3,215.3,53.1,216.5,51.5,216.7L51.5,216.7z M51.5,198.9
	c-2,0.2-3.8-1.1-4-3.1c-0.2-2,1.1-3.8,3.1-4c2-0.2,3.8,1.1,4,3.1c0,0.3,0,0.6,0,0.9C54.3,197.4,53.1,198.7,51.5,198.9L51.5,198.9z
	 M51.5,181c-2,0.2-3.8-1.1-4-3.1c-0.2-2,1.1-3.8,3.1-4s3.8,1.1,4,3.1c0,0.3,0,0.6,0,0.9C54.3,179.5,53.1,180.8,51.5,181L51.5,181z
	 M51.5,163.2c-2,0.2-3.8-1.1-4-3.1c-0.2-2,1.1-3.8,3.1-4c2-0.2,3.8,1.1,4,3.1c0,0.3,0,0.6,0,0.9C54.3,161.7,53.1,162.9,51.5,163.2
	L51.5,163.2z M93,241.8H65.3v-57.1h25c2,0,3.6,1.6,3.6,3.6v52.7C93.8,241.4,93.4,241.8,93,241.8z"/>
<path class="st0" d="M83.1,221.5c-2,0-3.6,1.6-3.6,3.6c0,2,1.6,3.6,3.6,3.6c2,0,3.6-1.6,3.6-3.6C86.7,223.1,85.1,221.5,83.1,221.5z"
	/>
<path class="st0" d="M83.1,209.6c-2,0-3.6,1.6-3.6,3.6s1.6,3.6,3.6,3.6c2,0,3.6-1.6,3.6-3.6S85.1,209.6,83.1,209.6z"/>
<path class="st0" d="M83.1,191.8c-2,0-3.6,1.6-3.6,3.6s1.6,3.6,3.6,3.6c2,0,3.6-1.6,3.6-3.6S85.1,191.8,83.1,191.8z"/>
<path class="st0" d="M68.8,221.5c-2,0-3.6,1.6-3.6,3.6c0,2,1.6,3.6,3.6,3.6c2,0,3.6-1.6,3.6-3.6C72.4,223.1,70.8,221.5,68.8,221.5z"
	/>
<path class="st0" d="M68.8,209.6c-2,0-3.6,1.6-3.6,3.6s1.6,3.6,3.6,3.6c2,0,3.6-1.6,3.6-3.6S70.8,209.6,68.8,209.6z"/>
<path class="st0" d="M68.8,191.8c-2,0-3.6,1.6-3.6,3.6s1.6,3.6,3.6,3.6c2,0,3.6-1.6,3.6-3.6S70.8,191.8,68.8,191.8z"/>
<g>
	<g>
		<g>
			<path class="st0" d="M123.8,113.3H53v-50c0-2.3-1.9-4.2-4.2-4.2H32.1c-2.3,0-4.2,1.9-4.2,4.2v6.2c0,1.2,0.9,2.1,2.1,2.1h10.4v50
				c0,2.3,1.9,4.2,4.2,4.2h9.9c-0.4,1-0.5,2.1-0.5,3.1c0,5.2,4.2,9.4,9.4,9.4s9.4-4.2,9.4-9.4c0-1.1-0.2-2.1-0.5-3.1h24
				c-0.4,1-0.5,2.1-0.5,3.1c0,5.2,4.2,9.4,9.4,9.4s9.4-4.2,9.4-9.4c0-1.1-0.2-2.1-0.5-3.1h12c1.2,0,2.1-0.9,2.1-2.1v-6.2
				C128,115.1,126.1,113.3,123.8,113.3z M63.4,134.1c-2.9,0-5.2-2.3-5.2-5.2c0-1.4,0.5-2.7,1.5-3.7l0,0c1-1,2.3-1.5,3.7-1.5
				c1.4,0,2.7,0.5,3.7,1.5l0,0c1,1,1.5,2.3,1.5,3.7C68.6,131.8,66.3,134.1,63.4,134.1z M105.1,134.1c-2.9,0-5.2-2.3-5.2-5.2
				c0-1.4,0.5-2.7,1.5-3.7l0,0c1-1,2.3-1.5,3.7-1.5c1.4,0,2.7,0.5,3.7,1.5l0,0c1,1,1.5,2.3,1.5,3.7
				C110.3,131.8,107.9,134.1,105.1,134.1z M123.8,121.6h-12.9c-1.6-1.3-3.7-2.1-5.9-2.1s-4.2,0.7-5.9,2.1H69.3
				c-1.7-1.3-3.7-2.1-5.9-2.1s-4.2,0.7-5.9,2.1H44.6v-50h2.1v-4.2h-4.2H32.1v-4.2h16.7v52.1c0,1.2,0.9,2.1,2.1,2.1h72.9L123.8,121.6
				L123.8,121.6z"/>
			<rect x="61.3" y="126.8" class="st0" width="4.2" height="4.2"/>
			<rect x="103" y="126.8" class="st0" width="4.2" height="4.2"/>
			<path class="st0" d="M60.3,110.1h5.2h7.3h33.3h7.3h5.2c2.3,0,4.2-1.9,4.2-4.2V70.6c0-2.3-1.9-4.2-4.2-4.2h-5.2h-7.3h-6.2v-5.2
				h3.1c1.2,0,2.1-0.9,2.1-2.1v-6.2c0-1.2-0.9-2.1-2.1-2.1H75.9c-1.2,0-2.1,0.9-2.1,2.1v6.2c0,1.2,0.9,2.1,2.1,2.1H79v5.2h-6.2h-7.3
				h-5.2c-2.3,0-4.2,1.9-4.2,4.2V106C56.1,108.3,58,110.1,60.3,110.1z M115.5,70.6h3.1V106h-3.1V70.6z M108.2,70.6h3.1V106h-3.1
				V70.6z M78,57v-2.1h22.9V57H78z M95.7,61.2v5.2H83.2v-5.2H95.7z M74.9,70.6H104V106H74.9V70.6z M67.6,70.6h3.1V106h-3.1V70.6z
				 M60.3,70.6h3.1V106h-3.1V70.6z"/>
			<path class="st0" d="M88.4,87.2c1.2,0,2.1-0.9,2.1-2.1v-6.2h6.2v-4.2h-8.3H80c-1.2,0-2.1,0.9-2.1,2.1v8.3c0,1.2,0.9,2.1,2.1,2.1
				H88.4L88.4,87.2z M82.1,78.9h4.2v4.2h-4.2V78.9z"/>
			<path class="st0" d="M96.7,89.3h-8.3c-1.2,0-2.1,0.9-2.1,2.1v6.2H80v4.2h8.3h8.3c1.2,0,2.1-0.9,2.1-2.1v-8.3
				C98.8,90.2,97.9,89.3,96.7,89.3z M94.6,97.6h-4.2v-4.2h4.2V97.6z"/>
		</g>
	</g>
</g>
<g>
	<g>
		<path class="st0" d="M346.7,420.6c-0.1-0.3-2-6-5.1-12.3c-4.6-9.6-9.4-15.4-14.5-17.9c0,0-9.3-4.3-9.3-4.3l-4-3.4l-6.4,6.4l4,28.5
			c0,0.1,0,0.2-0.1,0.3l-4,5.6c-0.1,0.1-0.2,0.1-0.3,0.1s-0.2,0-0.3-0.1l-4-5.6c0-0.1-0.1-0.2-0.1-0.3l3.9-28.4l-6.5-6.5l-4.1,3.4
			c0,0-18,8.2-24.3,10c1-3.9,2.4-8.8,3.9-13.5c1.3-3.7-0.8-7.8-4.5-9c-3.7-1.3-7.8,0.8-9,4.5c-0.1,0.2-1.9,5.6-3.5,11.4
			c-3,11.1-3.2,15.7-0.7,19.1c1.5,2.1,3.8,3.3,6.3,3.3h0c4.2,0,12-2.1,20.1-5.1v24.9h45v-16c1.5,3.2,2.6,6.2,3.3,7.9
			c-0.3,1.5-0.9,4.3-2.3,8h15c1.4-4.7,1.6-7.8,1.7-8.3C347.1,422.4,347,421.4,346.7,420.6z"/>
		<path class="st0" d="M306.9,382.3c10.4,0,18.2-9.7,18.3-25.9c0.1-11.3-5.3-18-18.3-18c-13.1,0-18.5,6.7-18.3,18
			C288.7,372.6,296.5,382.3,306.9,382.3z"/>
		<path class="st0" d="M259.8,355.5c1,1.5,2.1,3,2.1,5.1l0.1,4c0,0.6,0.5,1.1,1.1,1.1h0.7c0.2,1.1,1.2,2,2.4,2c1.2,0,2.2-0.9,2.4-2
			h0.7c0.6,0,1.1-0.5,1.1-1.1l0.1-4c0.1-2.1,1.1-3.6,2.1-5.1c1.2-1.8,2.4-3.6,2.4-6.8c0-4.6-4-8.4-8.8-8.4c-4.9,0-8.9,3.8-8.9,8.4
			C257.4,351.9,258.6,353.7,259.8,355.5z M266.2,357.8l-1.3-7.7c0-0.2,0.1-0.4,0.2-0.5c0.1-0.1,0.3-0.2,0.4-0.2
			c0.1,0,0.3,0.1,0.3,0.2c0.1,0.2,0.3,0.3,0.5,0.3c0.2,0,0.4-0.1,0.5-0.3c0-0.1,0.2-0.2,0.3-0.2c0.1,0,0.3,0.1,0.4,0.2
			c0.1,0.1,0.2,0.3,0.1,0.5L266.2,357.8z M266.2,342.4c3.7,0,6.7,2.8,6.7,6.2c0,2.6-1,4-2.1,5.6c-0.9,1.4-2.1,3-2.4,5.2h-1.1
			l1.6-9.1c0,0,0,0,0,0c0.1-0.6-0.1-1.1-0.5-1.6c-0.4-0.4-0.9-0.7-1.4-0.7c-0.3,0-0.6,0.1-0.8,0.2c-0.3-0.1-0.5-0.2-0.8-0.2
			c-0.5,0-1,0.3-1.4,0.7c-0.4,0.4-0.5,1-0.5,1.6c0,0,0,0,0,0l1.6,9.1H264c-0.3-2.2-1.5-3.8-2.4-5.2c-1.1-1.6-2.1-3-2.1-5.6
			C259.5,345.2,262.5,342.4,266.2,342.4z"/>
		<path class="st0" d="M266.2,338.2c0.6,0,1-0.5,1-1v-5.9c0-0.6-0.5-1-1-1s-1,0.5-1,1l0,0v5.9c0,0.3,0.1,0.5,0.3,0.7
			C265.7,338.1,265.9,338.2,266.2,338.2z"/>
		<path class="st0" d="M274.3,341.2c0.3,0,0.6-0.1,0.8-0.4l3.7-4.5c0.4-0.4,0.3-1.1-0.1-1.5c-0.4-0.4-1.1-0.3-1.5,0.1l-3.7,4.5
			c-0.4,0.4-0.3,1.1,0.1,1.5C273.8,341.1,274.1,341.2,274.3,341.2z"/>
		<path class="st0" d="M277.6,347.8c0.1,0.5,0.5,0.8,1,0.8c0.1,0,0.1,0,0.2,0l5.8-1c0.6-0.1,0.9-0.6,0.8-1.2
			c-0.1-0.6-0.6-0.9-1.2-0.8l-5.8,1C277.9,346.7,277.5,347.2,277.6,347.8z"/>
		<path class="st0" d="M277.6,355.2c-0.5-0.3-1.1-0.1-1.4,0.4c-0.3,0.5-0.1,1.1,0.4,1.4l5.1,2.9c0.2,0.1,0.3,0.1,0.5,0.1
			c0.4,0,0.7-0.2,0.9-0.5c0.3-0.5,0.1-1.1-0.4-1.4L277.6,355.2z"/>
		<path class="st0" d="M256.2,355.5c-0.3-0.5-0.9-0.7-1.4-0.4l-5.1,2.9c-0.5,0.3-0.7,0.9-0.4,1.4c0.2,0.3,0.5,0.5,0.9,0.5
			c0.2,0,0.3,0,0.5-0.1l5.1-2.9C256.3,356.7,256.5,356,256.2,355.5z"/>
		<path class="st0" d="M253.8,348.6c0.5,0,0.9-0.3,1-0.8c0.1-0.6-0.3-1.1-0.8-1.2l-5.8-1c-0.6-0.1-1.1,0.3-1.2,0.8s0.3,1.1,0.8,1.2
			l5.8,1C253.7,348.6,253.7,348.6,253.8,348.6z"/>
		<path class="st0" d="M257.3,340.8c0.2,0.3,0.5,0.4,0.8,0.4l0,0c0.2,0,0.5-0.1,0.7-0.3c0.4-0.4,0.5-1,0.1-1.5l-3.8-4.5
			c-0.4-0.4-1-0.5-1.5-0.1c-0.2,0.2-0.3,0.4-0.4,0.7s0,0.5,0.2,0.8L257.3,340.8z"/>
	</g>
</g>
<path class="st0" d="M277.7,402.7c-0.5-0.5-1.3-0.5-1.9-0.1l-2.7,2.4l-14.1-14.1c-0.5-0.5-1.3-0.5-1.9,0c-0.5,0.5-0.5,1.3,0,1.9
	l13.9,13.9l-6.9,6.2l-23.1-23.3l22.9-21.7c0.5-0.5,0.5-1.3,0-1.9c-0.5-0.5-1.3-0.5-1.9,0l-23.9,22.7c-0.3,0.3-0.4,0.5-0.4,0.9
	s0.1,0.7,0.4,0.9l2.1,2.1l-4.6,4.9l-9-0.9c-0.4,0-0.8,0.1-1.1,0.4l-3.7,3.6l-6.8-6.8l2.3-2.4c0.3-0.3,0.4-0.7,0.4-0.9
	c0-0.3-0.1-0.7-0.4-0.9L193.7,367c-0.5-0.5-1.3-0.5-1.9,0c-0.5,0.5-0.5,1.3,0,1.9l16,15.3l-23.6,23.2l-4.1-3.7
	c-0.5-0.5-1.3-0.4-1.9,0.1s-0.4,1.3,0.1,1.9l12.5,11.1c0.3,0.3,0.5,0.4,0.9,0.4s0.7-0.1,0.9-0.4l2.3-2.3l12.5,12.2l-2.3,2.3
	c-0.5,0.5-0.5,1.3,0,1.9l4.6,4.6l0,0l0,0l4.6,4.6l4.6,4.6l4.6,4.6c0.3,0.3,0.7,0.4,0.9,0.4c0.3,0,0.7-0.1,0.9-0.4l2.4-2.4l2.4,2.4
	c0.3,0.3,0.5,0.4,0.9,0.4s0.7-0.1,0.9-0.4l3.7-3.7l0.5,0.5c0.3,0.3,0.7,0.4,0.9,0.4c0.3,0,0.7-0.1,0.9-0.4l3.7-3.7l0.5,0.5
	c0.3,0.3,0.7,0.4,0.9,0.4c0.3,0,0.7-0.1,0.9-0.4l3.7-3.7l0.5,0.5c0.3,0.3,0.7,0.4,0.9,0.4c0.3,0,0.7-0.1,0.9-0.4l4.6-4.6
	c0.5-0.5,0.5-1.3,0-1.9l-6.9-6.9l12.5-13.3l2.4,2.4c0.3,0.3,0.7,0.4,0.9,0.4c0.3,0,0.7-0.1,0.9-0.4l12.5-11.1
	C278,404,278.2,403.2,277.7,402.7z M210.6,403.3c0,3.2-2.7,5.8-5.8,5.8c-1.3,0-2.5-0.4-3.4-1.2l8.1-8.1
	C210.2,400.8,210.6,402.1,210.6,403.3z M211.3,398l2.3-2.3l1.2,1.2l-2.4,2.5C212,399,211.6,398.4,211.3,398z M191.6,413.9l-5.4-4.8
	l23.6-23.1l4.9,4.6L191.6,413.9z M199.4,409.8c0.5,0.4,0.9,0.7,1.5,1.1c-0.4,0.4-0.8,0.9-1.3,1.3c-0.5,0.5-1.1,1.1-1.6,1.6l-1.3-1.3
	L199.4,409.8z M209.2,428.4l2.8,2.8l-1.3,1.5l-2.8-2.8L209.2,428.4z M215.3,437.1l-2.8-2.7l1.3-1.5l2.8,2.8L215.3,437.1z
	 M218.5,437.7l2.8,2.8l-1.5,1.5l-2.8-2.8L218.5,437.7z M224.6,446.6l-2.8-2.8l1.5-1.5l2.8,2.8L224.6,446.6z M249.7,437l-0.5-0.5l0,0
	l-5.3-5.3l0,0l-1.6-1.6c-0.5-0.5-1.3-0.5-1.9,0c-0.5,0.5-0.5,1.3,0,1.9l6.1,6.1l-2.8,2.8l-7.6-7.6c-0.5-0.5-1.3-0.5-1.9,0
	c-0.5,0.5-0.5,1.3,0,1.9l1.6,1.6l4.4,4.4l-2.8,2.8l-4.4-4.4l-1.6-1.6l0,0l-1.6-1.6c-0.5-0.5-1.3-0.5-1.9,0c-0.5,0.5-0.5,1.3,0,1.9
	l3.1,3.1l3.1,3.1l-2.8,2.8l-31.4-30.9c0.5-0.5,1.1-1.1,1.6-1.6c0.8-0.8,1.6-1.6,2.3-2.3c0.4,0,0.7,0,1.1,0c4.6,0,8.5-3.8,8.5-8.5
	c0-0.4,0-0.7-0.1-1.1l3.4-3.4l3.6,3.6l-12.5,12.5c-0.3,0.3-0.4,0.7-0.4,1.1s0.3,0.7,0.5,0.9c0.3,0.3,7.6,5.7,20.2-7l24.5,24.5
	L249.7,437z M246.5,424.5l-17.6-17.6c-0.3-0.3-0.5-0.4-0.9-0.4s-0.7,0.1-0.9,0.4c-8.1,8.6-13.5,8.9-16,8.4l16.2-16l6.4,0.7l-0.9,1.1
	c-0.5,0.5-0.5,1.3,0,1.9c0.5,0.5,1.3,0.5,1.9,0l7.6-8l16.8,16.6L246.5,424.5z M248.9,386.5c0,2.3,1.9,4.1,4.1,4.1
	c2.3,0,4.1-1.9,4.1-4.1s-1.9-4.1-4.1-4.1C250.7,382.4,248.9,384.1,248.9,386.5z M254.4,386.5c0,0.8-0.7,1.5-1.5,1.5
	s-1.5-0.7-1.5-1.5s0.7-1.5,1.5-1.5S254.4,385.6,254.4,386.5z"/>
<g transform="translate(1 1)">
	<g>
		<g>
			<path class="st0" d="M150.3,419.5h-34.6c-1.2,0-1.9,0.8-1.9,1.9v7.7c0,1.2,0.8,1.9,1.9,1.9h34.6c1.2,0,1.9-0.8,1.9-1.9v-7.7
				C152.2,420.3,151.4,419.5,150.3,419.5z M148.4,427.2h-30.8v-3.8h30.8L148.4,427.2L148.4,427.2z"/>
			<path class="st0" d="M175.7,409.7h-3.1l-2.9-36.5c-1-11-10-19-21-19h-0.2h-0.3c-0.9-6.6-6.5-11.5-13.3-11.5h-3.8
				c-6.9,0-12.4,5-13.3,11.5c-10.7,0.1-19.6,8.2-20.7,18.8c0,0.1,0,0.2,0,0.3c0,0,0,0,0,0.1l-3.6,36.6h-3.2c-4,0-7.3,3.3-7.3,7.3
				v6.5c0,7.3,5.8,13.1,13.1,13.1h6.6c2.5,1.3,5.3,1.9,8.2,1.9h45.2c2.8,0,5.6-0.7,8.1-1.9h5.8c7.3,0,13.1-5.8,13.1-13.3v-6.5
				C183,413,179.7,409.7,175.7,409.7z M152.2,371.5c1.2,0,1.9-0.8,1.9-1.9s-0.8-1.9-1.9-1.9h-7.7c-1.2,0-1.9,0.8-1.9,1.9
				s0.8,1.9,1.9,1.9h1.9v20.3c-4.2,1.8-8.7,2.8-13.5,2.8c-4.7,0-9.3-0.9-13.5-2.7v-20.4h1.9c1.2,0,1.9-0.8,1.9-1.9s-0.8-1.9-1.9-1.9
				h-7.7c-1.2,0-1.9,0.8-1.9,1.9s0.8,1.9,1.9,1.9h1.9v18.5c-6.5-3.8-11.8-9.6-14.8-17c1.1-8.4,8-14.6,16.3-15c0.3,0,0.5,0,0.8,0l0,0
				h30.6c0.3,0,0.5,0,0.8,0c0.2,0,0.3,0,0.4,0c0.1,0,0.2,0,0.3,0c0.2,0,0.4,0,0.7,0.1c0,0,0.1,0,0.1,0c7.2,1,13,6.4,14.6,13.5
				c-2.9,7.8-8.3,14.2-15.2,18.2v-18.4H152.2L152.2,371.5z M131.1,346.5h3.8c4.6,0,8.5,3.3,9.4,7.7h-22.7
				C122.6,349.7,126.4,346.5,131.1,346.5z M86.8,423.8v-6.5c0-1.9,1.5-3.5,3.5-3.5h2.8l-0.5,5c0,0.5-0.1,1-0.1,1.5
				c0,4.5,1.5,8.7,4.5,12.1c0.1,0.2,0.3,0.3,0.4,0.5c0.1,0.1,0.1,0.1,0.2,0.2h-1.5C90.9,433,86.8,429,86.8,423.8z M111.1,434.9
				c-4,0-8.1-1.7-10.8-4.8c-2.9-2.9-4.2-6.9-3.8-11l0.8-7.1c0-0.2,0-0.4-0.1-0.5l2.9-31.7c3.8,6.3,9.2,11.3,15.6,14.5v7.9h-1.9
				l-1.9,1.9v7.7l1.9,1.9h7.7l1.9-1.9v-7.7l-1.9-1.9h-1.9V396c4.2,1.6,8.8,2.4,13.5,2.4c4.7,0,9.2-0.9,13.5-2.4v6.3h-1.9l-1.9,1.9
				v7.7l1.9,1.9h7.7l1.9-1.9v-7.7l-1.9-1.9h-1.9v-8c6.6-3.4,12.2-8.6,16-15.2l3.2,40.7c0.1,0.7,0.1,1.5,0,2.2
				c-0.1,2.2-0.7,4.3-1.6,6.1c-0.6,1.1-1.3,2-2.1,2.9c-0.9,0.9-1.8,1.6-2.9,2.2c-0.1,0-0.1,0.1-0.2,0.1c-0.1,0-0.1,0.1-0.2,0.1
				c-2,1-4.2,1.6-6.6,1.6L111.1,434.9L111.1,434.9z M119.5,406.1v3.8h-3.8v-3.8H119.5z M150.3,406.1v3.8h-3.8v-3.8H150.3z
				 M179.1,423.8c0,5.2-4.2,9.2-9.2,9.2h-0.8c1.3-1.5,2.3-3.3,3-5.2c0.8-2.1,1.3-4.4,1.3-6.8c0-0.7,0-1.4-0.1-2.2l-0.4-5h2.7
				c1.9,0,3.5,1.5,3.5,3.5V423.8L179.1,423.8z"/>
		</g>
	</g>
</g>
</svg>
