<?xml version="1.0" encoding="utf-8"?>
<!-- Generator: Adobe Illustrator 23.1.0, SVG Export Plug-In . SVG Version: 6.00 Build 0)  -->
<svg version="1.1" id="Layer_1" xmlns="http://www.w3.org/2000/svg" xmlns:xlink="http://www.w3.org/1999/xlink" x="0px" y="0px"
	 viewBox="0 0 512 512" style="enable-background:new 0 0 512 512;" xml:space="preserve">
<style type="text/css">
	.st0{fill:#D69E47;}
</style>
<g>
	<g>
		<g>
			<path class="st0" d="M490.7,352H128V96c0-11.8-9.6-21.3-21.3-21.3H21.3C9.6,74.7,0,84.2,0,96v32c0,5.9,4.8,10.7,10.7,10.7H64v256
				c0,11.8,9.6,21.3,21.3,21.3h50.7c-1.8,5.1-2.7,10.5-2.7,16c0,26.5,21.5,48,48,48s48-21.5,48-48c0-5.5-0.9-10.9-2.7-16h122.8
				c-1.8,5.1-2.7,10.5-2.7,16c0,26.5,21.5,48,48,48s48-21.5,48-48c0-5.5-0.9-10.9-2.7-16h61.4c5.9,0,10.7-4.8,10.7-10.7v-32
				C512,361.6,502.4,352,490.7,352z M181.3,458.7c-14.7,0-26.7-12-26.7-26.7c0-7.1,2.8-13.8,7.8-18.8c0,0,0.1-0.1,0.1-0.1
				c5-5,11.6-7.8,18.8-7.8s13.8,2.8,18.8,7.8c0,0,0.1,0.1,0.1,0.1c5,5,7.8,11.6,7.8,18.7C208,446.7,196,458.7,181.3,458.7z
				 M394.7,458.7c-14.7,0-26.7-12-26.7-26.7c0-7.1,2.8-13.8,7.8-18.7c0,0,0.1-0.1,0.1-0.1c4.9-5,11.6-7.8,18.7-7.8
				s13.8,2.8,18.7,7.8c0,0,0.1,0.1,0.1,0.1c5,4.9,7.8,11.6,7.8,18.7C421.3,446.7,409.4,458.7,394.7,458.7z M490.7,394.7h-65.9
				c-8.4-6.9-19-10.7-30.1-10.7s-21.6,3.8-30.1,10.7H211.4c-8.5-6.9-19-10.7-30.1-10.7c-11.1,0-21.6,3.8-30.1,10.7H85.3v-256H96
				v-21.3H74.7H21.3V96h85.3v266.7c0,5.9,4.8,10.7,10.7,10.7h373.3L490.7,394.7L490.7,394.7z"/>
			<rect x="170.7" y="421.3" class="st0" width="21.3" height="21.3"/>
			<rect x="384" y="421.3" class="st0" width="21.3" height="21.3"/>
			<path class="st0" d="M165.3,336H192h37.3H400h37.3H464c11.8,0,21.3-9.6,21.3-21.3V133.3c0-11.8-9.6-21.3-21.3-21.3h-26.7H400h-32
				V85.3h16c5.9,0,10.7-4.8,10.7-10.7v-32c0-5.9-4.8-10.7-10.7-10.7H245.3c-5.9,0-10.7,4.8-10.7,10.7v32c0,5.9,4.8,10.7,10.7,10.7
				h16V112h-32H192h-26.7c-11.8,0-21.3,9.6-21.3,21.3v181.3C144,326.4,153.6,336,165.3,336z M448,133.3h16v181.3h-16V133.3z
				 M410.7,133.3h16v181.3h-16V133.3z M256,64V53.3h117.3V64H256z M346.7,85.3V112h-64V85.3H346.7z M240,133.3h149.3v181.3H240
				V133.3z M202.7,133.3h16v181.3h-16V133.3z M165.3,133.3h16v181.3h-16V133.3z"/>
			<path class="st0" d="M309.3,218.7c5.9,0,10.7-4.8,10.7-10.7v-32h32v-21.3h-42.7h-42.7c-5.9,0-10.7,4.8-10.7,10.7V208
				c0,5.9,4.8,10.7,10.7,10.7L309.3,218.7L309.3,218.7z M277.3,176h21.3v21.3h-21.3V176z"/>
			<path class="st0" d="M352,229.3h-42.7c-5.9,0-10.7,4.8-10.7,10.7v32h-32v21.3h42.7H352c5.9,0,10.7-4.8,10.7-10.7V240
				C362.7,234.1,357.9,229.3,352,229.3z M341.3,272H320v-21.3h21.3V272z"/>
		</g>
	</g>
</g>
</svg>
