<?xml version="1.0" encoding="utf-8"?>
<!-- Generator: Adobe Illustrator 23.1.0, SVG Export Plug-In . SVG Version: 6.00 Build 0)  -->
<svg version="1.1" id="Layer_1" xmlns="http://www.w3.org/2000/svg" xmlns:xlink="http://www.w3.org/1999/xlink" x="0px" y="0px"
	 viewBox="0 0 512 512" style="enable-background:new 0 0 512 512;" xml:space="preserve">
<style type="text/css">
	.st0{fill:#D69E47;}
</style>
<g>
	<g>
		<path class="st0" d="M219,65c-46,0-83.3,37.4-83.3,83.3s37.4,83.3,83.3,83.3c46,0,83.3-37.4,83.3-83.3S265,65,219,65z M219,200.3
			c-28.7,0-52-23.3-52-52s23.3-52,52-52s52,23.3,52,52S247.7,200.3,219,200.3z"/>
	</g>
</g>
<g>
	<g>
		<polygon class="st0" points="385.8,379.3 347.3,373.7 330,338.8 312.8,373.7 274.3,379.3 302.2,406.5 295.6,444.9 330,426.8 
			364.5,444.9 357.9,406.5 		"/>
	</g>
</g>
<g>
	<g>
		<path class="st0" d="M349.1,277.7C365.6,232.1,374,190.9,374,155C374,69.5,304.5,0,219,0S64,69.5,64,155
			c0,62,24.1,137.7,71.6,224.9c35,64.3,69.5,110.1,70.9,112l12.5,16.6l12.5-16.6c0.3-0.4,4.9-6.5,12.4-17.3
			c21.5,23,52.2,37.4,86.1,37.4c65,0,117.9-52.9,117.9-117.9C448,335.5,405.1,286.8,349.1,277.7z M224.7,447.1c-2,3-4,5.8-5.7,8.4
			C185.3,406.8,95.4,266.3,95.4,155c0-68.2,55.5-123.6,123.6-123.6S342.7,86.8,342.7,155c0,34.8-9,75.8-26.7,122
			c-58.4,7-103.8,56.8-103.8,117.1C212.1,413.1,216.7,431.2,224.7,447.1z M330,480.7c-47.7,0-86.6-38.8-86.6-86.6
			c0-47.7,38.8-86.6,86.6-86.6c47.7,0,86.6,38.8,86.6,86.6C416.6,441.8,377.8,480.7,330,480.7z"/>
	</g>
</g>
</svg>
