<?xml version="1.0" encoding="utf-8"?>
<!-- Generator: Adobe Illustrator 23.1.0, SVG Export Plug-In . SVG Version: 6.00 Build 0)  -->
<svg version="1.1" id="Capa_1" xmlns="http://www.w3.org/2000/svg" xmlns:xlink="http://www.w3.org/1999/xlink" x="0px" y="0px"
	 viewBox="0 0 318.7 318.7" style="enable-background:new 0 0 318.7 318.7;" xml:space="preserve">
<style type="text/css">
	.st0{fill:#D69E47;}
</style>
<g>
	<g>
		<polygon class="st0" points="0,222.5 14.6,222.5 14.6,68.6 14.6,57.7 25.5,57.7 272.4,57.7 272.4,41.2 0,41.2 		"/>
		<polygon class="st0" points="41.1,227.9 41.1,225.2 41.1,222.5 41.1,82.8 272.4,82.8 275.1,82.8 277.8,82.8 297.9,82.8 
			297.9,68.6 277.8,68.6 275.1,68.6 272.4,68.6 25.5,68.6 25.5,222.5 25.5,225.2 25.5,227.9 25.5,249.9 41.1,249.9 		"/>
		<path class="st0" d="M303.3,95.3h-5.4h-20h-2.7h-2.7H53.1v127.1v2.7v2.7v22v5.4v5.4v12.8v4h265.6v-4V95.3h-10H303.3z M69.5,260.8
			v-5.4v-5.4v-22v-2.7v-0.6h100.2v-2.1v-14.2H69.5v-96.6h202.9h2.7h2.7h20h4.5v96.6h-4.5h-20h-2.7h-2.7h-4.9v14.2v2.1h7.6h2.7h20
			h4.5v30.8v5.4v0.5h-233V260.8z"/>
		<path class="st0" d="M122.9,131.7c2.3,0,4.5,0.3,6.6,0.8c0.2-1,0.4-2.1,0.4-3.3c0,0-3.1-10.1-6.9-10.1h-0.2
			c-3.8,0-6.9,10.1-6.9,10.1c0,1.2,0.2,2.3,0.4,3.3C118.4,132,120.6,131.7,122.9,131.7z"/>
		<path class="st0" d="M155.4,154.7c-1.2,0-2.3,0.2-3.3,0.4c0.5,2.1,0.8,4.3,0.8,6.6c0,2.3-0.3,4.5-0.8,6.6c1,0.2,2.1,0.4,3.3,0.4
			c0,0,10.1-3.1,10.1-6.9v-0.2C165.5,157.8,155.4,154.7,155.4,154.7z"/>
		<path class="st0" d="M122.9,191.7c-2.3,0-4.5-0.3-6.6-0.8c-0.2,1-0.4,2.1-0.4,3.3c0,0,3.1,10.1,6.9,10.1h0.2
			c3.8,0,6.9-10.1,6.9-10.1c0-1.2-0.2-2.3-0.4-3.3C127.3,191.4,125.1,191.7,122.9,191.7z"/>
		<path class="st0" d="M98.3,178.8c-0.9,0.6-1.7,1.3-2.5,2.2c0,0-4.5,9.6-1.7,12.1l0.1,0.1c2.8,2.6,11.9-2.8,11.9-2.8
			c0.8-0.9,1.4-1.8,1.9-2.7C104.2,185.5,100.9,182.4,98.3,178.8z"/>
		<path class="st0" d="M98.3,144.5c2.5-3.6,5.9-6.7,9.7-8.9c-0.5-0.9-1.1-1.8-1.9-2.7c0,0-9.1-5.4-11.9-2.8l-0.1,0.1
			c-2.8,2.6,1.7,12.1,1.7,12.1C96.6,143.2,97.4,143.9,98.3,144.5z"/>
		<path class="st0" d="M147.4,144.5c0.9-0.6,1.7-1.3,2.5-2.2c0,0,4.5-9.6,1.7-12.1l-0.1-0.1c-2.8-2.6-11.9,2.8-11.9,2.8
			c-0.8,0.9-1.4,1.8-1.9,2.7C141.6,137.9,144.9,140.9,147.4,144.5z"/>
		<path class="st0" d="M147.4,178.8c-2.5,3.6-5.9,6.7-9.7,8.9c0.5,0.9,1.1,1.8,1.9,2.7c0,0,9.1,5.4,11.9,2.8l0.1-0.1
			c2.8-2.6-1.7-12.1-1.7-12.1C149.2,180.1,148.3,179.4,147.4,178.8z"/>
		<path class="st0" d="M92.9,161.7c0-2.3,0.3-4.5,0.8-6.6c-1-0.2-2.1-0.4-3.3-0.4c0,0-10.1,3.1-10.1,6.9v0.2
			c0,3.8,10.1,6.9,10.1,6.9c1.2,0,2.3-0.2,3.3-0.4C93.2,166.1,92.9,163.9,92.9,161.7z"/>
		<path class="st0" d="M142,176.8c2.5-3.2,4.3-7,5-11.2c0.2-1.3,0.4-2.6,0.4-4s-0.2-2.7-0.4-4c-0.7-4.2-2.4-8-5-11.2
			c-1.7-2.1-3.6-3.9-5.8-5.4c-2.8-1.8-6-3-9.4-3.6c-1.3-0.2-2.6-0.4-4-0.4s-2.7,0.2-4,0.4c-3.4,0.6-6.6,1.8-9.4,3.6
			c-2.2,1.5-4.2,3.3-5.8,5.4c-2.5,3.2-4.3,7-5,11.2c-0.2,1.3-0.4,2.6-0.4,4s0.2,2.7,0.4,4c0.7,4.2,2.4,8,5,11.2
			c1.7,2.1,3.6,3.9,5.8,5.4c2.8,1.8,6,3,9.4,3.6c1.3,0.2,2.6,0.4,4,0.4s2.7-0.2,4-0.4c3.4-0.6,6.6-1.8,9.4-3.6
			C138.5,180.8,140.4,178.9,142,176.8z"/>
		<path class="st0" d="M243.1,150.5c0.9,0,1.7-0.2,2.6-0.2c0.5,0,0.9,0.1,1.4,0.1c1,0,1.9,0.1,2.8,0.2c1,0.1,1.9,0.3,2.9,0.5
			c-0.2-4.1-3.6-7.3-7.7-7.3c-4.1,0-7.3,3.1-7.7,7.1c0.9-0.1,1.9-0.1,2.8-0.2C241.2,150.6,242.1,150.6,243.1,150.5z"/>
		<path class="st0" d="M235.3,222.5c-1.8-11.9-11.9-21-24.2-21c-12.3,0-22.5,9.2-24.2,21c-0.1,0.9-0.2,1.8-0.3,2.7
			c0,0.3-0.1,0.6-0.1,0.9c0,0.6,0.1,1.2,0.2,1.8c0.8,10.7,8.4,19.4,18.5,22c1.9,0.5,3.9,0.8,5.9,0.8s4-0.3,5.9-0.8
			c10.1-2.5,17.7-11.3,18.5-22c0-0.6,0.2-1.2,0.2-1.8c0-0.3-0.1-0.6-0.1-0.9C235.6,224.3,235.4,223.4,235.3,222.5z M231.1,227.9
			c-0.1,2.3-0.5,3.9-0.5,3.9c-0.5,0.7-1.2,1.3-1.9,1.8c-5.5,3.7-16.2,2-16.2,2c1.6-3.1-1.4-5.7-1.4-5.7c1.3-0.5,2.5-1.2,3.7-2
			c1.3-0.8,2.5-1.7,3.6-2.7c1.1-0.9,2.1-1.8,3-2.7c2.8-2.8,5-5.4,5.8-6.6c0.3-0.4,0.4-0.6,0.4-0.6c1.7,2.3,2.5,4.8,3,7.2
			c0.2,0.9,0.3,1.8,0.4,2.7C231.1,226.2,231.1,227.1,231.1,227.9z M191.2,222.5c0.4-2,2.4-10.3,9.3-13.1c0,0,0,0.3,0,0.7
			c0,1.9,0.2,7.3,1.6,12.4c0.3,0.9,0.6,1.8,1,2.7c0.4,1,0.9,1.9,1.4,2.7c0.1,0.2,0.2,0.4,0.3,0.6c0,0-4.1,0.1-4.4,4.4
			c0,0-3.1-1.3-6.1-4.9c-0.7-0.8-1.3-1.7-1.9-2.7c-0.1-0.2-0.2-0.4-0.3-0.6c-0.3-0.5-0.6-1.1-0.9-1.7
			C191.1,222.9,191.1,222.8,191.2,222.5z M212.4,246.6c0,0-6.3,0.5-12.3-3.1l0.7-1.3l2.3-4.4c0,0,2.8,2.4,5.6,1.1l3,6.3L212.4,246.6
			z M210,235.8c-0.9,1.7-3.3,2.3-5.2,1.2s-2.8-3.3-1.9-5c0.9-1.7,3.3-2.3,5.2-1.2S210.9,234.1,210,235.8z"/>
		<path class="st0" d="M246.5,188.9c-0.7,0-1.4-0.1-2.1-0.1c-0.2,0-0.4,0-0.6,0c-0.9,0-1.8,0-2.7,0.1c-0.9,0-1.8,0-2.7,0.1v33.5v2.7
			v2.7V246c0,1.5,0.6,2.7,1.4,3.9c1.2,1.7,3.2,3,5.5,3c2.3,0,4.2-1.2,5.5-3c0.8-1.1,1.4-2.4,1.4-3.9v-18.1v-2.7v-2.7v-33.4
			c-0.9,0-1.8-0.1-2.7-0.1C248.3,189,247.4,188.9,246.5,188.9z"/>
		<path class="st0" d="M196.7,189.8c0.3,0,0.6,0,0.9-0.1c6.5-1.8,22.2-5.6,41.6-6.2c1.2,0,2.4-0.1,3.6-0.1c0.5,0,0.9,0,1.4,0
			c1,0,2.1,0.1,3.1,0.1c1.2,0,2.4,0.1,3.6,0.1c6.9,0.3,14.1,1.1,21.4,2.4c0.9,0.2,1.8,0.3,2.7,0.5c0.9,0.2,1.8,0.4,2.7,0.6
			c3,0.7,6.1,1.5,9.1,2.4c0.4,0.1,0.7,0.2,1,0.2c1,0,1.3-0.8,0.6-2.1c-2-3.3-5.7-8.9-10.7-14.5c-0.9-1-1.8-1.9-2.7-2.9
			c-0.9-0.9-1.8-1.7-2.7-2.6c-5.6-5.1-12.4-9.5-20-11.2c-0.9-0.2-1.8-0.4-2.7-0.5c-1-0.1-2-0.2-3-0.2c-0.3,0-0.7-0.1-1-0.1
			c-0.7,0-1.4,0.1-2.1,0.1c-1,0-2.1,0.1-3.1,0.2c-0.9,0.1-1.8,0.2-2.7,0.3c-20.2,3.1-33,17.5-41.6,31.3
			C195.3,189,195.6,189.8,196.7,189.8z"/>
	</g>
</g>
</svg>
