<?xml version="1.0" encoding="utf-8"?>
<!-- Generator: Adobe Illustrator 23.1.0, SVG Export Plug-In . SVG Version: 6.00 Build 0)  -->
<svg version="1.1" xmlns="http://www.w3.org/2000/svg" xmlns:xlink="http://www.w3.org/1999/xlink" x="0px" y="0px"
	 viewBox="0 0 750 500" style="enable-background:new 0 0 750 500;" xml:space="preserve">
<style type="text/css">
	.st0{fill:#FFFFFF;}
	.st1{fill:#F4F2D6;}
	.st2{fill:#FFDD40;}
	.st3{opacity:0.6;}
</style>
<g id="BACKGROUND">
</g>
<g id="OBJECTS_1_">
	<g>
		<g>
			<polygon points="372.6,270.9 314.3,394.4 363.4,266.9 			"/>
			<polygon points="326.4,343.1 297.1,412.1 316.9,339.8 			"/>
			<polygon points="214.9,342.1 101.2,438.5 208.2,334.7 			"/>
			<polygon points="144.9,235.4 80.2,237.1 143.8,225.5 			"/>
			<polygon points="266.4,202.8 154.1,106.6 272.7,195 			"/>
			<polygon points="422.3,176.9 400.2,94.7 431.8,173.7 			"/>
			<polygon points="408.1,212.6 383.6,78.4 417.9,210.4 			"/>
			<polygon points="529,163.8 623.5,74.5 536.2,170.8 			"/>
			<polygon points="562,294.2 677.6,336.6 558.9,303.7 			"/>
			<polygon points="470.2,328.1 509.3,416.3 461.2,332.7 			"/>
			<g>
				<g>
					<g>
						<path class="st0" d="M554.7,371.5c-20.3-23.1-54.8-32-88.4-29.8c-33.6,2.3-64.7,27.4-80.5,52.9
							c-22.1-26.9-57.6-42.2-92.3-39.7s-73.6,27.3-91.6,57.1c-3.4-38.7-17.6-61.6-44.7-77.3C130,318.9,94.2,319.5,65.8,320
							c25.8-19.3,47.2-47.2,54.6-79.1c7.4-32-2.6-67.3-12-96.9c31.7,26.5,74.6,49.7,115.4,37.8c40.8-11.9,73-48.9,79.4-90.9
							c19.7,30.3,52.7,51.7,88.8,51.7s78.2-24.3,97.9-54.6c16.4,28.2,42.9,50.3,73.6,61.3c30.7,11,65.3,10.7,95.8-0.7
							c-17.3,21.4-27.2,50.2-22.5,77.6c4.7,27.5,23,49.1,47.2,65.6c-29.8-2.6-55.6,2.3-79,16.7C581.8,322.9,563.6,345.6,554.7,371.5
							z"/>
					</g>
				</g>
				<g>
					<g>
						<path d="M198.9,413.6c-3.1-35.8-15.6-57.5-41.8-72.7c-21.3-12.4-48.8-14.1-72.8-14.1c-5.3,0-10.4,0.1-15.4,0.2l-18.6,0.3
							l14.8-11.1c26.8-20,45.8-47.6,52.4-75.7c7-29.9-2-62.7-11.8-93.7l-6.2-19.6l15.8,13.2c39,32.7,69.8,39.6,88.7,39.6
							c7.3,0,14.4-1,21.1-3c38.3-11.2,69.2-46.5,75.1-86l2.3-15.6l8.6,13.2c19.6,30.2,51.8,48.9,83.8,48.9
							c33.1,0,73.9-22.8,92.9-51.9l5.3-8.2l4.9,8.4c15.6,26.8,41.3,48.2,70.5,58.7c14.3,5.1,29.4,7.7,44.9,7.7
							c16.2,0,31.9-2.8,46.8-8.4l20.6-7.7l-13.8,17.1c-17.4,21.6-25.4,48.8-21.2,72.8c4.1,23.5,19.1,44.3,44.7,61.6l19,12.9l-22.9-2
							c-4.9-0.4-9.6-0.6-14.2-0.6c-23.2,0-43.2,5.4-61.2,16.5c-22,13.6-39.5,35.4-48,59.9l-3.4,9.7l-6.8-7.7
							c-15.7-17.8-42.6-28.1-73.8-28.1c-3.2,0-6.4,0.1-9.7,0.3c-32.2,2.2-61.3,26.7-75.8,50.1l-4.4,7.1l-5.3-6.5
							c-19.4-23.6-49.3-37.8-80.2-37.8c-2.3,0-4.7,0.1-7,0.3c-32.3,2.3-69.7,25.7-86.8,54.2l-9.5,15.8L198.9,413.6z"/>
						<path d="M198.9,413.6c-3.1-35.8-15.6-57.5-41.8-72.7c-21.3-12.4-48.8-14.1-72.8-14.1c-5.3,0-10.4,0.1-15.4,0.2l-18.6,0.3
							l14.8-11.1c26.8-20,45.8-47.6,52.4-75.7c7-29.9-2-62.7-11.8-93.7l-6.2-19.6l15.8,13.2c39,32.7,69.8,39.6,88.7,39.6
							c7.3,0,14.4-1,21.1-3c38.3-11.2,69.2-46.5,75.1-86l2.3-15.6l8.6,13.2c19.6,30.2,51.8,48.9,83.8,48.9
							c33.1,0,73.9-22.8,92.9-51.9l5.3-8.2l4.9,8.4c15.6,26.8,41.3,48.2,70.5,58.7c14.3,5.1,29.4,7.7,44.9,7.7
							c16.2,0,31.9-2.8,46.8-8.4l20.6-7.7l-13.8,17.1c-17.4,21.6-25.4,48.8-21.2,72.8c4.1,23.5,19.1,44.3,44.7,61.6l19,12.9l-22.9-2
							c-4.9-0.4-9.6-0.6-14.2-0.6c-23.2,0-43.2,5.4-61.2,16.5c-22,13.6-39.5,35.4-48,59.9l-3.4,9.7l-6.8-7.7
							c-15.7-17.8-42.6-28.1-73.8-28.1c-3.2,0-6.4,0.1-9.7,0.3c-32.2,2.2-61.3,26.7-75.8,50.1l-4.4,7.1l-5.3-6.5
							c-19.4-23.6-49.3-37.8-80.2-37.8c-2.3,0-4.7,0.1-7,0.3c-32.3,2.3-69.7,25.7-86.8,54.2l-9.5,15.8L198.9,413.6z"/>
					</g>
				</g>
				<g>
					<g>
						<path class="st1" d="M554.7,371.5c-20.3-23.1-54.8-32-88.4-29.8c-33.6,2.3-64.7,27.4-80.5,52.9
							c-22.1-26.9-57.6-42.2-92.3-39.7s-73.6,27.3-91.6,57.1c-3.4-38.7-17.6-61.6-44.7-77.3C130,318.9,94.2,319.5,65.8,320
							c25.8-19.3,47.2-47.2,54.6-79.1c7.4-32-2.6-67.3-12-96.9c31.7,26.5,74.6,49.7,115.4,37.8c40.8-11.9,73-48.9,79.4-90.9
							c19.7,30.3,52.7,51.7,88.8,51.7s78.2-24.3,97.9-54.6c16.4,28.2,42.9,50.3,73.6,61.3c30.7,11,65.3,10.7,95.8-0.7
							c-17.3,21.4-27.2,50.2-22.5,77.6c4.7,27.5,23,49.1,47.2,65.6c-29.8-2.6-55.6,2.3-79,16.7C581.8,322.9,563.6,345.6,554.7,371.5
							z"/>
						<path class="st1" d="M554.7,371.5c-20.3-23.1-54.8-32-88.4-29.8c-33.6,2.3-64.7,27.4-80.5,52.9
							c-22.1-26.9-57.6-42.2-92.3-39.7s-73.6,27.3-91.6,57.1c-3.4-38.7-17.6-61.6-44.7-77.3C130,318.9,94.2,319.5,65.8,320
							c25.8-19.3,47.2-47.2,54.6-79.1c7.4-32-2.6-67.3-12-96.9c31.7,26.5,74.6,49.7,115.4,37.8c40.8-11.9,73-48.9,79.4-90.9
							c19.7,30.3,52.7,51.7,88.8,51.7s78.2-24.3,97.9-54.6c16.4,28.2,42.9,50.3,73.6,61.3c30.7,11,65.3,10.7,95.8-0.7
							c-17.3,21.4-27.2,50.2-22.5,77.6c4.7,27.5,23,49.1,47.2,65.6c-29.8-2.6-55.6,2.3-79,16.7C581.8,322.9,563.6,345.6,554.7,371.5
							z"/>
					</g>
				</g>
			</g>
		</g>
		<g>
			<polygon points="611.8,398.8 576.6,394.1 607,375.7 600.5,340.7 627.4,363.9 658.7,347 644.9,379.8 670.7,404.2 635.3,401.3 
				619.9,433.4 			"/>
			<polygon class="st1" points="603.6,348.2 625.5,367.1 650.9,353.3 639.7,380 660.7,399.9 631.9,397.5 619.4,423.6 612.8,395.5 
				584.1,391.7 608.8,376.7 			"/>
		</g>
		<g>
			<polygon points="128.1,405.5 98.1,402.4 123.5,386 117.1,356.5 140.5,375.5 166.6,360.4 155.8,388.5 178.2,408.7 148.1,407.1 
				135.9,434.7 			"/>
			<polygon class="st1" points="120.4,363.9 138.7,378.8 159.1,366.9 150.6,388.9 168.1,404.6 144.6,403.4 135.1,424.9 129,402.1 
				105.6,399.7 125.4,386.9 			"/>
		</g>
		<g>
			<polygon points="212.5,107.4 184.8,104.5 208.2,89.5 202.4,62.2 224,79.8 248.1,65.9 238,91.9 258.7,110.5 230.9,108.9 
				219.6,134.3 			"/>
			<polygon class="st1" points="248.6,106.4 227.4,105.2 218.8,124.6 213.4,104.1 192.3,101.9 210.1,90.4 205.7,69.6 222.1,83 
				240.5,72.4 232.8,92.2 			"/>
		</g>
		<g>
			<polygon points="546.6,95.8 517.7,99 538.2,78.4 526.1,51.9 552.1,65.1 573.6,45.4 569.1,74.2 594.4,88.5 565.7,93.2 
				559.9,121.7 			"/>
			<polygon class="st1" points="567.7,53.1 564.2,75.3 583.8,86.4 561.6,90 557.1,112 546.8,92 524.5,94.5 540.3,78.6 531,58.1 
				551.1,68.2 			"/>
		</g>
		<g>
			<polygon points="436,410.3 416.9,418.5 426.6,400.1 412.9,384.5 433.4,388.1 443.9,370.2 446.9,390.8 467.2,395.3 448.5,404.5 
				450.5,425.2 			"/>
			<polygon class="st1" points="445,416.3 435.2,406.1 422.2,411.7 428.8,399.2 419.4,388.6 433.4,391 440.6,378.8 442.6,392.8 
				456.4,395.9 443.7,402.2 			"/>
		</g>
		<g>
			<polygon points="148.2,145.1 132.9,143.1 146,135.1 143.1,120 154.8,130 168.3,122.6 162.4,136.8 173.6,147.3 158.3,146.1 
				151.8,160 			"/>
			<polygon class="st1" points="166.2,144.1 155.8,143.3 151.3,152.8 148.9,142.6 138.5,141.3 147.4,135.8 145.4,125.6 153.4,132.3 
				162.6,127.3 158.6,137 			"/>
		</g>
	</g>
	<g>
		<g>
			<path d="M50.4,341.7c-4.2,0-9.1-0.6-14.8-2c-10.8-2.4-16.2-4.3-19.8-8.8l-0.3-0.4l-2.9-4.3l0.1-4.1c0.1-3.8,0.3-7.4,0.5-10.9
				c-1.4-1.1-2.5-1.9-3.3-2.5c-0.9-0.6-1.8-1.2-2.6-1.9L6.5,306l-0.9-1.1c-0.9-1.1-1.6-2.4-2.2-3.7l-0.1-0.3
				c-2-4.6-1.9-9.9,0.1-15.8c1.8-5.1,4.7-9.8,8.6-13.7c0.1-3.4-0.5-11.5-3.9-30.9c-1.9-9.8-4.4-22.2-8.1-39.2L0,201l-0.1-0.3
				c-0.6-3.8-0.6-13.1,13-18.3c6.1-2.3,13-3.5,20.2-3.6l0.3,0c3.7,0.1,14.7,0.3,21,8.2l2.3,2.8l0.7,2.8c1.1,4.4,2.2,8.7,3.1,12.8
				c3-3.2,6.4-6.9,10.1-10.8l3.3-3.5c17.1-18.1,28.1-28.6,29.5-29.7l0.5-0.4l0.6-0.4c1.6-1.1,3.5-1.9,5.7-2.5c2.5-0.7,5.2-1,8.3-1
				c3.2,0,6.8,0.4,10.8,1.1c7.5,1.3,13.4,3.6,18,6.8c3,1.9,5.2,4.8,6.1,8.3l0,0.2c2.2,8.5-3.5,15.8-10.6,23.7
				c-5.7,6.4-14.3,15.1-25.1,26c-5.3,5.4-11,11.1-17.2,17.5c7.9,2,15.8,4.2,20.5,5.6l0.1,0c37.9,11.6,42.6,17.6,44.6,20.1l0.7,0.8
				l1.7,3l0.6,2.3c1.6,6.5-0.5,13.4-6.4,20.4l-0.1,0.1c-5.6,6.6-10.9,10.3-16.6,11.9c-1.5,0.4-2.9,0.6-4.4,0.6c-3.6,0-7-1.3-9.6-3.6
				c-5.1-2.2-24.4-8.4-62.1-14.8c2.8,22.6,3.6,32.7,2.9,38.3l0,0.2l0,0.2c-1,6.3-5,11.2-11,13.6C58.1,341,54.6,341.7,50.4,341.7z"/>
			<path d="M192,299.7c-5.5,0-11.4-1.6-17.4-4.8c-7.1-3.8-11.9-8.1-14.6-13.2l-0.8-1.5l-0.6-2.5c-1.1-4.9,0.2-9.9,3.6-13.4l0.3-0.3
				l0.3-0.3c0.5-0.5,5-5.9,7.2-35.5c0.4-12.8,0.8-25.8,1.4-38.7c-0.1-0.3-0.2-0.8-0.5-1.5l-0.1-0.1c-0.3-0.8-0.7-1.7-1.2-2.7
				c-1.5-3-2.6-5.5-3.4-7.7c-0.8-2.2-1.4-4-1.8-5.7l-0.2-1.2l0-0.3c-2.1-14.1,12-25.1,48.7-38.2l0.2-0.1c3.5-1.2,7.9-2.1,13.6-2.9
				c6.2-0.9,12.4-1.3,18.4-1.3c7.4,0,14.6,0.7,21.6,2c18.4,3.5,32.2,11.1,41,22.6c1.3,1.7,2.3,3.4,3.1,5.4c0.4,0.9,0.7,1.8,1,2.7
				c0.4,1.5,0.7,3,0.8,4.5c0.7,9.7-4.2,20.1-15.3,32.7c-9.7,11.1-21.9,21.7-37.3,32.2c-13.6,9.3-25.9,15.8-37.4,19.8
				c-0.4,2.1-0.9,5-1.5,9c-2.7,17.5-3.7,21.9-5.1,24.9c-3.6,8.3-10.1,13.8-18.4,15.5C195.8,299.5,193.9,299.7,192,299.7z M228,180.7
				c-0.5,1.8-1.3,5.7-2.6,13.2c0.5-0.3,1.1-0.5,1.6-0.8c9.2-4.6,12.6-7.2,13.8-8.4l0.2-0.2c3.2-3,6.4-6.3,9.6-9.8
				c-1,0.1-2,0.2-3.1,0.3C234.8,176.7,229.7,179.4,228,180.7z"/>
			<path d="M370.6,282.3c-15.3-0.1-28-2.6-38.8-7.5c-15.1-6.9-25.2-18-30.1-33.1c-1-3.1-1.9-6.3-2.6-9.4c-1-4.7-1.7-9.4-2-14.1
				c-0.6-10.4,0.7-20.8,3.9-31c5.7-18.4,16.4-33.6,31.9-45c15.6-11.7,33.9-17.7,54.2-17.7c0.9,0,1.9,0,2.8,0
				c18.5,0.5,35.6,6.3,50.6,17.2c15.5,11.2,25,25.7,28,43l0,0.2l0,0.2c0.2,1.6,0.4,3.3,0.6,4.9l0,0.3c0.2,3.2,0.1,6.5-0.3,9.9
				c-1.6,15.9-9.2,33.5-24,55.6c-6.5,9.7-18.1,16.7-35.4,21.4c-12.4,3.3-25,5-37.6,5C371.5,282.3,371,282.3,370.6,282.3z
				 M391.2,174.3c-14,0-24.4,5-31.9,15.2l-0.1,0.1c-5.4,7.2-8,14.8-7.7,23c0.1,2.1,0.3,4.3,0.8,6.6l0,0.1c0.3,1.5,0.7,3.2,1.2,4.9
				c0.3,0.9,1.1,3.7,6.9,6.2c4.5,2,9.4,3,15,3.1l0.3,0c8.6,0,18-5.9,28.6-18c8.7-9.9,13.4-18.5,13.9-25.5c0.1-0.9,0.1-1.8,0-2.7
				c-0.1-0.4-0.1-0.9-0.2-1.3l-0.1-0.3l-0.1-0.3c-0.4-2.2-3.2-4.7-7.7-6.9c-5.2-2.6-11-4-17-4.2
				C392.5,174.3,391.9,174.3,391.2,174.3z"/>
			<path d="M559.5,300.8c-2.8,0-5.9-0.1-9.4-0.2l-11.8-0.4l-0.7-11.8c-1.3-21.2-3.4-39.9-6.1-54.9c-1.7,2.1-3.6,4.5-5.7,7.2
				c-17.7,22.9-23.3,34.3-24.9,38.3c-1.4,3.7-5.9,11.4-18.9,11.4c-1.9,0-3.9-0.2-6.1-0.5c-15.7-2.2-22.7-10.2-25.7-16.5l-0.1-0.1
				c-1.3-2.7-2.1-5.9-2.8-10.1c-0.4-2.8-0.7-5.9-0.8-9.4c-0.5-11.2,0.4-26.4,2.5-45.3c0.4-3.8,0.9-7.6,1.4-11.5
				c1.9-14.3,3.7-25.3,5.2-32.7c0.9-4.1,1.7-7.3,2.5-9.6c3.4-9.9,10.2-11.4,13.9-11.4h0.7l1.9,0.2l1.1,0.3
				c24.9,7.4,34.7,13.9,36.2,23.9l0.3,1.9l-0.3,2.3c-0.3,1.8-0.8,3.5-1.7,5l-0.2,0.4c-0.1,0.3-0.3,0.8-0.6,1.7
				c0.1-0.1,0.1-0.1,0.2-0.2c6.8-6.7,12.6-11.9,17.3-15.6c6.1-4.9,10.7-7.7,16-7.7c0.9,0,1.8,0.1,2.6,0.2c1.1,0.2,2.2,0.6,3.2,1
				c0.4,0,0.9,0.1,1.7,0.1c3.3,0,8.4-0.5,15.1-1.4l13.6-1.8l1.1,13.6c1.1,12.9,2,25.9,2.7,38.9c3.2-3.3,6.5-6.5,9.7-9.7l0.1-0.1
				c32.5-31.6,38.3-31.6,42.9-31.6c1.3,0,2.6,0.2,3.9,0.5l2.5,0.8l1.9,1.4c16,12.1,22.2,20.1,22.3,28.5l0,1.6l-0.4,1.5
				c-1,4.1-1.9,5.1-13.5,16.9c-6.6,6.7-16.5,16.9-29.2,30.4c-18.9,20.4-27.5,32-30.6,36.8l0.1,0.3l-0.9,3.3
				C588.1,300.8,570.9,300.8,559.5,300.8z"/>
			<path d="M643.5,330c-3.1,0-6-0.5-8.8-1.4l-0.2-0.1c-3.9-1.4-7.3-3.4-10.2-6.2l-0.4-0.4l-0.4-0.4c-6-6.7-9-14.6-8.6-22.8l0-0.4
				l0-0.4c0.1-0.5,0.1-1,0.1-1.4l0-0.4l0.1-0.4c0.2-1.4,0.6-2.9,1-4.2c1.7-5.2,5-9.6,9.5-12.6l0.2-0.1l0.2-0.1
				c2.3-1.4,4.6-2.8,7-4.3l1.6-1l1.1-0.4c2.9-1.2,5.9-1.9,8.8-2.1l-0.3-12.5c-1.9,0.8-2.8,1.8-2.8,1.8c0.1-0.1,1.3-1.6,4.1-7.3
				l0.1-0.2c6.3-12.4,11-21.3,12.9-24.6l0.1-0.2c0.6-1,3.4-6.2,7-12.8c2.9-5.3,6.6-12.1,11.1-20.5l0.8-1.5l1.1-1.2
				c2.3-2.5,6.6-5.4,13.6-5.4c4.7,0,10.2,1.3,17.4,4c3.4,1.3,9.3,3.8,16.1,6.9c4.9,2.2,8.5,3.7,11.3,4.9c1.5,0.6,2.7,1.1,3.6,1.4
				l0.3,0.1l0.8,0.3c14,5.9,14.1,16.9,13.9,20.2l-0.1,1.1l-0.5,1.8c-0.3,1.1-0.7,2.2-1.1,3.2c-4.1,9.5-15.2,18.2-41.1,32
				c-13.5,12.7-19,19.1-21.1,21.7c-0.1,0.6-0.3,1.3-0.6,1.9c-2,5.2-6.9,8.4-12.4,8.4c-1.1,0-2.1-0.1-3.3-0.4c1,3.7,1.1,7.2,0.8,10
				l-0.1,0.8l-0.4,1.7c-0.2,1-0.6,2-1,3.1c-0.9,2.4-2.3,4.9-4.1,7.3l-0.7,0.9l-4.5,4.1l-0.9,0.6c-4,2.7-7.8,4.6-11.5,5.9l-0.4,0.2
				l-0.4,0.1C649.5,329.5,646.4,330,643.5,330z"/>
		</g>
		<g>
			<path class="st0" d="M45.4,324.7c-3.3,0-7.3-0.5-12.2-1.7c-10.1-2.3-12.2-3.5-13-4.5l-0.3-0.5c-0.1-0.2-0.2-0.4-0.2-0.6
				c0.2-6,0.5-11.5,0.9-16.5c-3.5-3.1-6.6-5.6-9.1-7.3c-0.4-0.2-0.8-0.5-1.2-0.9c0,0-0.1-0.1-0.1-0.1l-0.2-0.3
				c-0.2-0.3-0.4-0.5-0.5-0.8l-0.1-0.3c-0.8-1.8-0.6-4.1,0.4-7.1c1.5-4.3,4.2-8.1,8-11.3c2.4-2.1,1.4-15.4-2.8-39.6
				c-1.9-9.9-4.5-22.5-8.2-39.5c-0.5-2.9,3.9-4.6,5.4-5.2c4.8-1.8,10.2-2.8,16-2.8c6.2,0.1,10,1.3,11.9,3.7l0.6,0.7
				c0.1,0.1,0.2,0.3,0.2,0.4c2.8,11.3,5.2,21.6,7,30.5c0,0,0.1,0,0.1,0c0.5-0.2,1-0.3,1.7-0.3c0.6,0,1.3,0.1,2.1,0.2
				c2.1-0.9,10.4-9.8,22.8-23.2l3.2-3.5c17.4-18.5,27.8-28.2,28.4-28.7c0,0,0.1,0,0.1-0.1c0.6-0.4,1.3-0.7,2.1-0.9
				c1.4-0.4,3.2-0.6,5.2-0.6c2.5,0,5.4,0.3,8.7,0.9c5.9,1.1,10.5,2.8,13.6,5.1c0.5,0.2,0.8,0.6,0.9,1l0.1,0.3
				c1.1,4-7.5,13-32.6,38.4c-9,9.1-19.2,19.5-31.1,31.8c-0.2,1.3-0.1,1.9,0,2.3l0.1,0.2c0.1,0.1,0.1,0.1,0.2,0.1
				c0.1,0,0.2,0,0.4-0.1c0.3-0.1,0.6-0.1,1.1-0.1c3.9,0,17,2.7,37.7,8.8c21.1,6.5,36,12.6,38.7,16.1c0,0,0.1,0.1,0.1,0.1l0.4,0.6
				c0,0.1,0.1,0.2,0.1,0.2l0.2,0.7c0.7,2.6-0.6,5.8-4,9.8c-4,4.6-7.4,7.3-10.6,8.1c-0.4,0.1-0.8,0.2-1.2,0.2c-1,0-1.6-0.5-1.9-0.9
				c-0.1-0.1-0.1-0.2-0.2-0.3l0,0c-2.5-2-27.4-11.2-83.6-19.5c3.7,27.7,5.7,45,4.9,51.2c-0.3,2.1-1.5,3.5-3.6,4.4
				C50.1,324.3,48,324.7,45.4,324.7z"/>
			<path class="st0" d="M187,282.7c-3.6,0-7.5-1.1-11.8-3.4c-4.9-2.6-8.1-5.3-9.6-8.2c0-0.1-0.1-0.2-0.1-0.2l-0.2-0.9
				c-0.3-1.2,0.1-1.9,0.5-2.3c5.8-5.2,9.4-19.6,11.2-43.8c0.4-12.9,0.8-26,1.5-39.1c0.1-0.7,0-1.4-0.2-2.3c-0.2-1.1-0.6-2.4-1.1-3.7
				c-0.4-1.1-1-2.4-1.7-3.8c-1.3-2.7-2.3-4.9-3-6.8c-0.6-1.5-1-2.7-1.2-3.7l-0.2-0.9c-1.3-8.8,25-19.5,40.8-25.2
				c2.8-0.9,6.6-1.7,11.5-2.4c5.6-0.8,11.3-1.2,16.7-1.2c6.6,0,13.1,0.6,19.4,1.8c15.4,2.9,26.7,9,33.8,18.1
				c0.7,0.9,1.2,1.8,1.6,2.9c0.2,0.4,0.3,0.8,0.4,1.2c0.2,0.6,0.3,1.3,0.4,2c0.4,6.2-3.6,14-12.3,23.9c-9.1,10.4-20.6,20.3-35,30.2
				c-15.2,10.4-28.5,17-40.6,20.3c-0.3,0.6-1.4,3.4-3.4,16.7c-2.2,14.1-3.3,20-4.2,21.9c-2,4.8-5.3,7.7-9.8,8.6
				C189.1,282.6,188.1,282.7,187,282.7z M207.3,205.8c0.1,0,0.3,0.1,0.8,0.1c0.4,0,0.8,0,1.3-0.1c3.9-0.6,9.8-3,18-7.1
				c8.3-4.1,13.8-7.5,16.8-10.5c4.7-4.4,9.3-9.3,13.9-14.5c5.8-6.7,8.6-11.2,8.4-13.4l-0.1-0.6c0-0.1-0.1-0.1-0.2-0.2
				c-0.9-0.9-3.5-2.4-11.5-2.4c-3.8,0-8.4,0.3-13.7,1c-14.9,1.9-24.8,5.7-28.6,11.2c-0.3,0.5-1.5,3.3-3.9,18.1
				c-1.7,11.2-1.7,15.7-1.3,17.5l0.1,0.6L207.3,205.8z"/>
			<path class="st0" d="M365.7,265.3c-13.6-0.1-24.7-2.2-34-6.5c-11.9-5.4-19.9-14.2-23.7-25.9c-0.9-2.8-1.7-5.6-2.3-8.3
				c-0.9-4.1-1.5-8.2-1.7-12.2c-0.5-8.9,0.6-17.9,3.3-26.7c4.9-16,14.2-29.1,27.6-38.9c13.6-10.2,29.4-15.3,47.1-15.3
				c0.8,0,1.7,0,2.5,0c16.1,0.4,30.9,5.5,43.9,14.9c12.9,9.3,20.7,21.2,23.2,35.4c0.2,1.4,0.4,2.9,0.5,4.3c0.1,2.6,0.1,5.2-0.2,8
				c-1.4,13.7-8.6,30.1-22,50.1c-4.8,7.2-14.2,12.6-28.6,16.5c-11.5,3.1-22.7,4.5-34.4,4.5C366.5,265.3,366.1,265.3,365.7,265.3z
				 M386.2,157.3c-17.8,0-31.8,6.7-41.6,20c-7,9.4-10.4,19.6-10.1,30.6c0.1,2.8,0.4,5.6,1,8.6c0.4,1.9,0.9,4,1.5,6.1
				c1.8,6.1,6.3,10.6,13.5,13.8c6,2.7,12.4,4,19.7,4.1l0.5,0c12.3,0,24.6-7.2,37.7-22.1c10.6-12.1,16.2-22.7,16.9-32.5
				c0.1-1.6,0.1-3.3,0-4.8c-0.1-1-0.3-2-0.5-3c-1.2-6.1-6-11.3-14.1-15.4c-6.8-3.3-14.2-5.2-22-5.4
				C387.7,157.3,387,157.3,386.2,157.3z"/>
			<path class="st0" d="M554.5,283.8c-2.7,0-5.6-0.1-9-0.2c-0.5,0-0.9-0.4-1-0.9c-2.6-43.2-7.7-66.8-11.6-79c-1.7,1-8,7-21.7,24.7
				c-13.5,17.4-22.9,32-26.6,41.4c-0.9,2.5-3.5,3.7-7.7,3.7c-1.3,0-2.8-0.1-4.4-0.3c-8.5-1.2-13.9-4.4-16.6-9.9
				c-0.7-1.6-1.3-3.8-1.7-6.7c-0.4-2.3-0.6-5-0.7-8c-0.4-10.6,0.4-25.2,2.4-43.5c0.4-3.7,0.9-7.5,1.3-11.3
				c5.8-43.2,8.1-43.2,9.7-43.2c0,0,0.1,0,0.2,0c0.1,0,0.1,0,0.2,0c17.8,5.3,27.2,10.1,27.8,14.3c0,0.1,0,0.2,0,0.3l-0.1,0.4
				c-0.1,0.4-0.2,0.7-0.3,0.9c-1,1.6-3,7-6.5,23.7c-1.8,8.3-3,14.7-3.6,18.8c-0.2,1.2-0.3,2.3-0.4,3.1c9.3-9.9,19-19.7,28.8-29.3
				c7.6-7.4,21-19.9,24.9-19.9c0.1,0,0.3,0,0.4,0c0.3,0.1,0.5,0.2,0.8,0.3c0,0,0.1,0,0.1,0.1c0.1,0.1,0.4,0.3,1.6,0.5
				c1.2,0.2,2.7,0.3,4.6,0.3c3.9,0,9.3-0.5,16.7-1.5c0,0,0.1,0,0.1,0c0.2,0,0.4,0.1,0.6,0.2c0.2,0.2,0.3,0.4,0.4,0.7
				c1.8,22,3.2,44.3,4.1,66.3c9.3-10,18.9-20,28.7-29.6c14-13.7,30.5-28.2,34.5-28.2c0.2,0,0.4,0,0.5,0.1l0.2,0.1
				c0.1,0,0.2,0.1,0.3,0.2c11.6,8.8,17.5,15.2,17.5,19c0,0.1,0,0.2,0,0.2c-0.2,0.8-1.6,2.3-10.4,11.3c-6.6,6.8-16.6,17-29.4,30.6
				c-22.1,23.8-33.2,38.9-34.4,43.2l-0.1,0.3c0,0.1,0,0.2,0.1,0.2c0.1,0.3,0.2,0.7,0.2,1l0,0.1c0,0.2,0,0.3,0,0.5l-0.1,0.3
				C574.2,282.5,568.2,283.8,554.5,283.8z"/>
			<path class="st0" d="M638.5,313c-1.8,0-3.5-0.3-5.1-0.8c-2.3-0.8-4.3-2-6-3.6c-4-4.4-5.9-9.2-5.6-14.2c0.1-0.7,0.1-1.2,0.2-1.8
				c0.1-0.9,0.3-1.7,0.6-2.4c0.9-2.7,2.5-4.8,4.8-6.3c2.4-1.5,4.7-2.9,7-4.3l0.7-0.5c0,0,0.1-0.1,0.2-0.1c2.2-0.9,4.3-1.3,6.3-1.3
				c1.4,0,2.8,0.2,4.2,0.7c1.7,0.6,3.4,1.4,5,2.3c0,0,0.1,0.1,0.1,0.1c6.5,5.2,9.4,11,8.8,17.1c0,0,0,0.1,0,0.1l-0.2,0.7
				c-0.1,0.6-0.3,1.1-0.5,1.7c-0.5,1.3-1.3,2.8-2.4,4.2c0,0-0.1,0.1-0.1,0.1c-1,0.9-1.9,1.8-2.9,2.7c0,0-0.1,0.1-0.1,0.1
				c-3.2,2.1-6.1,3.6-8.8,4.6C642.3,312.7,640.3,313,638.5,313z M674.1,277.4c-0.6,0-1.9-0.3-6.8-2.1c-3.7-1.4-8.5-3.3-14.7-5.7
				l-0.3-0.1c-2.3-1-5.1-2.1-8.2-3.2c-0.4-0.1-0.6-0.5-0.6-0.9s0.2-0.8,0.6-0.9c0.9-0.4,3.1-2.4,7.4-11.2
				c6.1-12,10.7-20.9,12.5-23.9c0.7-1.1,3.2-5.8,7.4-13.5c2.9-5.3,6.6-12.1,11.1-20.4c0-0.1,0.1-0.1,0.1-0.2c1-1.1,2.6-1.6,4.9-1.6
				c3.1,0,7.5,1.1,13.2,3.2c1.2,0.4,5.7,2.2,15.5,6.6c5,2.2,8.7,3.8,11.6,5c1.6,0.7,3,1.2,4.1,1.6l0.5,0.2c4.7,2,6.9,4.7,6.6,8.1
				c0,0.1,0,0.1,0,0.2l-0.2,0.7c-0.1,0.5-0.3,1-0.5,1.6c-2.8,6.6-13.9,14.6-37.1,26.9c-17.5,16.4-24.9,25.2-25.9,27.8l-0.1,0.2
				c0,0,0,0.1,0,0.1c0.3,0.5,0.3,0.9,0.2,1.1C675.2,276.8,674.9,277.4,674.1,277.4z"/>
		</g>
		<g>
			<path class="st2" d="M44.4,323.7c-3.3,0-7.3-0.5-12.2-1.7c-10.1-2.3-12.2-3.5-13-4.5l-0.3-0.5c-0.1-0.2-0.2-0.4-0.2-0.6
				c0.2-6,0.5-11.5,0.9-16.5c-3.5-3.1-6.6-5.6-9.1-7.3c-0.4-0.2-0.8-0.5-1.2-0.9c0,0-0.1-0.1-0.1-0.1L9,291.3
				c-0.2-0.3-0.4-0.5-0.5-0.8l-0.1-0.3c-0.8-1.8-0.6-4.1,0.4-7.1c1.5-4.3,4.2-8.1,8-11.3c2.4-2.1,1.4-15.4-2.8-39.6
				c-1.9-9.9-4.5-22.5-8.2-39.5c-0.5-2.9,3.9-4.6,5.4-5.2c4.8-1.8,10.2-2.8,16-2.8c6.2,0.1,10,1.3,11.9,3.7l0.6,0.7
				c0.1,0.1,0.2,0.3,0.2,0.4c2.8,11.3,5.2,21.6,7,30.5c0,0,0.1,0,0.1,0c0.5-0.2,1-0.3,1.7-0.3c0.6,0,1.3,0.1,2.1,0.2
				c2.1-0.9,10.4-9.8,22.8-23.2l3.2-3.5c17.4-18.5,27.8-28.2,28.4-28.7c0,0,0.1,0,0.1-0.1c0.6-0.4,1.3-0.7,2.1-0.9
				c1.4-0.4,3.2-0.6,5.2-0.6c2.5,0,5.4,0.3,8.7,0.9c5.9,1.1,10.5,2.8,13.6,5.1c0.5,0.2,0.8,0.6,0.9,1l0.1,0.3
				c1.1,4-7.5,13-32.6,38.4c-9,9.1-19.2,19.5-31.1,31.8c-0.2,1.3-0.1,1.9,0,2.3l0.1,0.2c0.1,0.1,0.1,0.1,0.2,0.1
				c0.1,0,0.2,0,0.4-0.1c0.3-0.1,0.6-0.1,1.1-0.1c3.9,0,17,2.7,37.7,8.8c21.1,6.5,36,12.6,38.7,16.1c0,0,0.1,0.1,0.1,0.1l0.4,0.6
				c0,0.1,0.1,0.2,0.1,0.2l0.2,0.7c0.7,2.6-0.6,5.8-4,9.8c-4,4.6-7.4,7.3-10.6,8.1c-0.4,0.1-0.8,0.2-1.2,0.2c-1,0-1.6-0.5-1.9-0.9
				c-0.1-0.1-0.1-0.2-0.2-0.3l0,0c-2.5-2-27.4-11.2-83.6-19.5c3.7,27.7,5.7,45,4.9,51.2c-0.3,2.1-1.5,3.5-3.6,4.4
				C49.1,323.3,47,323.7,44.4,323.7z"/>
			<path class="st2" d="M186,281.7c-3.6,0-7.5-1.1-11.8-3.4c-4.9-2.6-8.1-5.3-9.6-8.2c0-0.1-0.1-0.2-0.1-0.2l-0.2-0.9
				c-0.3-1.2,0.1-1.9,0.5-2.3c5.8-5.2,9.4-19.6,11.2-43.8c0.4-12.9,0.8-26,1.5-39.1c0.1-0.7,0-1.4-0.2-2.3c-0.2-1.1-0.6-2.4-1.1-3.7
				c-0.4-1.1-1-2.4-1.7-3.8c-1.3-2.7-2.3-4.9-3-6.8c-0.6-1.5-1-2.7-1.2-3.7l-0.2-0.9c-1.3-8.8,25-19.5,40.8-25.2
				c2.8-0.9,6.6-1.7,11.5-2.4c5.6-0.8,11.3-1.2,16.7-1.2c6.6,0,13.1,0.6,19.4,1.8c15.4,2.9,26.7,9,33.8,18.1
				c0.7,0.9,1.2,1.8,1.6,2.9c0.2,0.4,0.3,0.8,0.4,1.2c0.2,0.6,0.3,1.3,0.4,2c0.4,6.2-3.6,14-12.3,23.9c-9.1,10.4-20.6,20.3-35,30.2
				c-15.2,10.4-28.5,17-40.6,20.3c-0.3,0.6-1.4,3.4-3.4,16.7c-2.2,14.1-3.3,20-4.2,21.9c-2,4.8-5.3,7.7-9.8,8.6
				C188.1,281.6,187.1,281.7,186,281.7z M206.3,204.8c0.1,0,0.3,0.1,0.8,0.1c0.4,0,0.8,0,1.3-0.1c3.9-0.6,9.8-3,18-7.1
				c8.3-4.1,13.8-7.5,16.8-10.5c4.7-4.4,9.3-9.3,13.9-14.5c5.8-6.7,8.6-11.2,8.4-13.4l-0.1-0.6c0-0.1-0.1-0.1-0.2-0.2
				c-0.9-0.9-3.5-2.4-11.5-2.4c-3.8,0-8.4,0.3-13.7,1c-14.9,1.9-24.8,5.7-28.6,11.2c-0.3,0.5-1.5,3.3-3.9,18.1
				c-1.7,11.2-1.7,15.7-1.3,17.5l0.1,0.6L206.3,204.8z"/>
			<path class="st2" d="M364.7,264.3c-13.6-0.1-24.7-2.2-34-6.5c-11.9-5.4-19.9-14.2-23.7-25.9c-0.9-2.8-1.7-5.6-2.3-8.3
				c-0.9-4.1-1.5-8.2-1.7-12.2c-0.5-8.9,0.6-17.9,3.3-26.7c4.9-16,14.2-29.1,27.6-38.9c13.6-10.2,29.4-15.3,47.1-15.3
				c0.8,0,1.7,0,2.5,0c16.1,0.4,30.9,5.5,43.9,14.9c12.9,9.3,20.7,21.2,23.2,35.4c0.2,1.4,0.4,2.9,0.5,4.3c0.1,2.6,0.1,5.2-0.2,8
				c-1.4,13.7-8.6,30.1-22,50.1c-4.8,7.2-14.2,12.6-28.6,16.5c-11.5,3.1-22.7,4.5-34.4,4.5C365.5,264.3,365.1,264.3,364.7,264.3z
				 M385.2,156.3c-17.8,0-31.8,6.7-41.6,20c-7,9.4-10.4,19.6-10.1,30.6c0.1,2.8,0.4,5.6,1,8.6c0.4,1.9,0.9,4,1.5,6.1
				c1.8,6.1,6.3,10.6,13.5,13.8c6,2.7,12.4,4,19.7,4.1l0.5,0c12.3,0,24.6-7.2,37.7-22.1c10.6-12.1,16.2-22.7,16.9-32.5
				c0.1-1.6,0.1-3.3,0-4.8c-0.1-1-0.3-2-0.5-3c-1.2-6.1-6-11.3-14.1-15.4c-6.8-3.3-14.2-5.2-22-5.4
				C386.7,156.3,386,156.3,385.2,156.3z"/>
			<path class="st2" d="M553.5,282.8c-2.7,0-5.6-0.1-9-0.2c-0.5,0-0.9-0.4-1-0.9c-2.6-43.2-7.7-66.8-11.6-79c-1.7,1-8,7-21.7,24.7
				c-13.5,17.4-22.9,32-26.6,41.4c-0.9,2.5-3.5,3.7-7.7,3.7c-1.3,0-2.8-0.1-4.4-0.3c-8.5-1.2-13.9-4.4-16.6-9.9
				c-0.7-1.6-1.3-3.8-1.7-6.7c-0.4-2.3-0.6-5-0.7-8c-0.4-10.6,0.4-25.2,2.4-43.5c0.4-3.7,0.9-7.5,1.3-11.3
				c5.8-43.2,8.1-43.2,9.7-43.2c0,0,0.1,0,0.2,0c0.1,0,0.1,0,0.2,0c17.8,5.3,27.2,10.1,27.8,14.3c0,0.1,0,0.2,0,0.3l-0.1,0.4
				c-0.1,0.4-0.2,0.7-0.3,0.9c-1,1.6-3,7-6.5,23.7c-1.8,8.3-3,14.7-3.6,18.8c-0.2,1.2-0.3,2.3-0.4,3.1c9.3-9.9,19-19.7,28.8-29.3
				c7.6-7.4,21-19.9,24.9-19.9c0.1,0,0.3,0,0.4,0c0.3,0.1,0.5,0.2,0.8,0.3c0,0,0.1,0,0.1,0.1c0.1,0.1,0.4,0.3,1.6,0.5
				c1.2,0.2,2.7,0.3,4.6,0.3c3.9,0,9.3-0.5,16.7-1.5c0,0,0.1,0,0.1,0c0.2,0,0.4,0.1,0.6,0.2c0.2,0.2,0.3,0.4,0.4,0.7
				c1.8,22,3.2,44.3,4.1,66.3c9.3-10,18.9-20,28.7-29.6c14-13.7,30.5-28.2,34.5-28.2c0.2,0,0.4,0,0.5,0.1l0.2,0.1
				c0.1,0,0.2,0.1,0.3,0.2c11.6,8.8,17.5,15.2,17.5,19c0,0.1,0,0.2,0,0.2c-0.2,0.8-1.6,2.3-10.4,11.3c-6.6,6.8-16.6,17-29.4,30.6
				c-22.1,23.8-33.2,38.9-34.4,43.2l-0.1,0.3c0,0.1,0,0.2,0.1,0.2c0.1,0.3,0.2,0.7,0.2,1l0,0.1c0,0.2,0,0.3,0,0.5l-0.1,0.3
				C573.2,281.5,567.2,282.8,553.5,282.8z"/>
			<path class="st2" d="M637.5,312c-1.8,0-3.5-0.3-5.1-0.8c-2.3-0.8-4.3-2-6-3.6c-4-4.4-5.9-9.2-5.6-14.2c0.1-0.7,0.1-1.2,0.2-1.8
				c0.1-0.9,0.3-1.7,0.6-2.4c0.9-2.7,2.5-4.8,4.8-6.3c2.4-1.5,4.7-2.9,7-4.3l0.7-0.5c0,0,0.1-0.1,0.2-0.1c2.2-0.9,4.3-1.3,6.3-1.3
				c1.4,0,2.8,0.2,4.2,0.7c1.7,0.6,3.4,1.4,5,2.3c0,0,0.1,0.1,0.1,0.1c6.5,5.2,9.4,11,8.8,17.1c0,0,0,0.1,0,0.1l-0.2,0.7
				c-0.1,0.6-0.3,1.1-0.5,1.7c-0.5,1.3-1.3,2.8-2.4,4.2c0,0-0.1,0.1-0.1,0.1c-1,0.9-1.9,1.8-2.9,2.7c0,0-0.1,0.1-0.1,0.1
				c-3.2,2.1-6.1,3.6-8.8,4.6C641.3,311.7,639.3,312,637.5,312z M673.1,276.4c-0.6,0-1.9-0.3-6.8-2.1c-3.7-1.4-8.5-3.3-14.7-5.7
				l-0.3-0.1c-2.3-1-5.1-2.1-8.2-3.2c-0.4-0.1-0.6-0.5-0.6-0.9s0.2-0.8,0.6-0.9c0.9-0.4,3.1-2.4,7.4-11.2
				c6.1-12,10.7-20.9,12.5-23.9c0.7-1.1,3.2-5.8,7.4-13.5c2.9-5.3,6.6-12.1,11.1-20.4c0-0.1,0.1-0.1,0.1-0.2c1-1.1,2.6-1.6,4.9-1.6
				c3.1,0,7.5,1.1,13.2,3.2c1.2,0.4,5.7,2.2,15.5,6.6c5,2.2,8.7,3.8,11.6,5c1.6,0.7,3,1.2,4.1,1.6l0.5,0.2c4.7,2,6.9,4.7,6.6,8.1
				c0,0.1,0,0.1,0,0.2l-0.2,0.7c-0.1,0.5-0.3,1-0.5,1.6c-2.8,6.6-13.9,14.6-37.1,26.9c-17.5,16.4-24.9,25.2-25.9,27.8l-0.1,0.2
				c0,0,0,0.1,0,0.1c0.3,0.5,0.3,0.9,0.2,1.1C674.2,275.8,673.9,276.4,673.1,276.4z"/>
		</g>
		<g class="st3">
			
				<image style="overflow:visible;" width="4293" height="2048" xlink:href="3A57D069.png"  transform="matrix(0.24 0 0 0.24 -143.32 -18.72)">
			</image>
		</g>
	</g>
</g>
</svg>
