<?xml version="1.0" encoding="utf-8"?>
<!-- Generator: Adobe Illustrator 23.1.0, SVG Export Plug-In . SVG Version: 6.00 Build 0)  -->
<svg version="1.1" id="Capa_1" xmlns="http://www.w3.org/2000/svg" xmlns:xlink="http://www.w3.org/1999/xlink" x="0px" y="0px"
	 viewBox="0 0 32 32" style="enable-background:new 0 0 32 32;" xml:space="preserve">
<style type="text/css">
	.st0{fill:#D69E47;}
</style>
<g>
	<g>
		<path class="st0" d="M27.7,16.2c-1.5,0-2.8,0.8-3.5,1.9c-0.7,0-1.3,0.1-1.9,0.4c-1.7,0.8-2.3,2.8-2.8,4.6
			c-0.8,2.7-1.4,4.4-3.9,4.6c-1.2,0.1-2.1-0.2-2.8-0.9c-1-1-1.4-3.6-1.6-5c-0.1-0.5,0.2-1,0.6-1.3c5.2-3.8,7.7-7.5,7.3-11
			c-0.3-3.3-3-5.3-4.5-6.1c0.1,0.3,0.1,0.3,0,0C14.3,2.6,13.5,2,12.5,2c-1.3,0-2.4,1.1-2.4,2.4s1.1,2.4,2.4,2.4
			c0.7,0,1.4-0.3,1.9-0.9l0,0c1.1,0.8,2.4,2.1,2.6,3.9c0.1,1.4-0.4,2.9-1.7,4.5l-11.3,0c-1.2-1.6-1.8-3.1-1.7-4.5
			c0.2-1.7,2.4-3.7,2.4-3.7c0.4,0.4,1,0.7,1.7,0.7c1.3,0,2.4-1.1,2.4-2.4S7.6,2,6.3,2C5.2,2,4.3,2.7,4,3.8c0,0,0,0,0,0
			c-1.5,1-3.7,2.9-4,5.8c-0.4,3.7,2.5,7.6,8.4,11.8c0.6,0.5,0.8,5.1,2.7,7c1.1,1.1,2.4,1.6,4.1,1.6c0.2,0,0.3,0,0.5,0
			c4.2-0.3,5.2-3.7,5.9-6.2c0.4-1.5,0.8-2.8,1.6-3.2c0.1,0,0.2,0.2,0.3,0.2c0,2.3,1.9,3.9,4.2,3.9c2.3,0,4.2-1.9,4.2-4.2
			C32,18.1,30.1,16.2,27.7,16.2z M6,16.5h7.1c-0.9,0.9-1.8,1.6-2.6,2.2c-0.6,0.4-1.3,0.4-1.8,0C7.7,18,6.8,17.3,6,16.5z M29.9,21.5
			c0-0.1,0-0.3,0-0.4c0-1.2-1-2.1-2.1-2.1c-1.2,0-2.1,1-2.1,2.1c0,0.1,0,0.3,0,0.4c-0.2-0.3-0.3-0.7-0.3-1.1c0-1.3,1.1-2.4,2.4-2.4
			c1.3,0,2.4,1.1,2.4,2.4C30.1,20.8,30,21.2,29.9,21.5z"/>
	</g>
</g>
</svg>
