<?xml version="1.0" encoding="utf-8"?>
<!-- Generator: Adobe Illustrator 23.1.0, SVG Export Plug-In . SVG Version: 6.00 Build 0)  -->
<svg version="1.1" id="Capa_1" xmlns="http://www.w3.org/2000/svg" xmlns:xlink="http://www.w3.org/1999/xlink" x="0px" y="0px"
	 viewBox="0 0 384 512" style="enable-background:new 0 0 384 512;" xml:space="preserve">
<style type="text/css">
	.st0{fill:#D69E47;}
</style>
<path class="st0" d="M144,56c0-4.4,3.6-8,8-8h80c4.4,0,8,3.6,8,8v72h-96V56z M320,128h-32V56c0-30.9-25.1-56-56-56h-80
	c-30.9,0-56,25.1-56,56v72H64c-35.3,0-64,28.7-64,64v224c0,35.3,28.7,64,64,64c0,17.7,14.3,32,32,32s32-14.3,32-32h128
	c0,17.7,14.3,32,32,32s32-14.3,32-32c35.3,0,64-28.7,64-64V192C384,156.7,355.3,128,320,128z M112,224h160c8.8,0,16,7.2,16,16
	s-7.2,16-16,16H112c-8.8,0-16-7.2-16-16S103.2,224,112,224z M112,352h160c8.8,0,16,7.2,16,16s-7.2,16-16,16H112c-8.8,0-16-7.2-16-16
	S103.2,352,112,352z"/>
</svg>
