<?xml version="1.0" encoding="utf-8"?>
<!-- Generator: Adobe Illustrator 23.1.0, SVG Export Plug-In . SVG Version: 6.00 Build 0)  -->
<svg version="1.1" id="Layer_1" xmlns="http://www.w3.org/2000/svg" xmlns:xlink="http://www.w3.org/1999/xlink" x="0px" y="0px"
	 viewBox="0 0 268.3 268.3" style="enable-background:new 0 0 268.3 268.3;" xml:space="preserve">
<style type="text/css">
	.st0{fill:#D69E47;}
</style>
<g>
	<g>
		<path class="st0" d="M259.3,39.7l0.2-0.2c9.3-9.3,9.6-24.1,0.7-33.1C256,2.3,250.3,0,244.2,0c-6.4,0-12.5,2.6-17.2,7.2L206.7,29
			l-73-21.9l-15.1,15.1c-1.9,1.9-3,4.4-3,7.1c0,2.7,1,5.2,3,7.1l0.7,0.7l52.7,29l-7.7,8.4C154,68,142.6,63.1,130.4,60.3
			c-7.7-1.8-15.6-2.7-23.5-2.7c-4,0-7.9,0.2-11.7,0.7l-0.4-0.4c-0.2,0.2-0.4,0.3-0.6,0.5c-43.8,5.2-79.9,37.1-89.9,81.2
			c-6.3,27.4-1.4,55.6,13.5,79.5c15,23.8,38.3,40.4,65.8,46.6c7.7,1.8,15.6,2.7,23.5,2.7c49.4,0,91.6-33.7,102.6-81.9
			c2-8.6,2.8-17.3,2.6-25.9c0.6-2.2,0.5-4.6-0.4-7.2c-1.5-16.3-6.8-32.1-15.7-46.3c-1.1-1.7-2.2-3.4-3.4-5.1l7.8-7.2l29.3,53.2
			l0.7,0.7c1.9,1.9,4.4,2.9,7.1,2.9s5.2-1,7.1-2.9l15.1-15.1l-22-73.5L259.3,39.7z M54.4,238.6c-10-7-18.6-15.9-25.3-26.6
			c-11.9-18.9-16.4-41-13.1-62.9c5.9,1.6,11.9,3.9,14.1,5.6c-0.1,0.6-0.2,1.2-0.3,1.8c-0.9,5.7-2.2,14.4,4.8,19.5
			c6.2,4.5,11.8,0.3,14.4-1.9c1,0.8,2.2,1.7,3.3,2.5c1.8,1.3,5,3.7,6.2,5.1c-0.4,1.3-0.9,2.8-1.4,4.2c-2.1,5.7-4.2,11.7-0.2,15.8
			c1.4,1.7,5.4,9.4,6.5,12.1c0,0.9,0,2,0.1,3.3c0.1,1.4,0.3,4.6,0.1,5.9c0,0-8,10.1-7.6,12.5L54.4,238.6z M196.8,183.4
			c-9.6,42.2-46.5,71.6-89.7,71.6c-6.9,0-13.8-0.8-20.5-2.3c-8.3-1.9-16.1-4.9-23.4-8.8c6.5-5.5,12-14.2,12.1-14.4
			c2-3.3,1.8-7.7,1.5-13.1c-0.1-0.9-0.1-1.7-0.1-2.2c0,0.3-0.1,0.6-0.1,0.7c1.1-4.7-5.3-15.5-8.4-20.1c0.3-1.2,1-3.1,1.5-4.5
			c0.8-2.2,1.6-4.5,2.1-6.7c1.8-7.9-5.5-13.4-11.5-17.7c-1.7-1.2-3.4-2.5-4.2-3.4c-2.7-2.8-7.1-5-13.7-0.1c0.1-1.4,0.4-3,0.5-4.1
			c0.2-1.4,0.4-2.8,0.6-4.2c0.8-7.7-7.5-13.8-24.6-18.1c9.4-31,33.7-54.1,64.1-62.2c-1.4,3.3-2.4,7.1-2.9,11.6
			c-0.3,2.6-0.7,4.9-1,6.9c-1.3,8.2-2.8,17.4,9,22.7c6.4,2.9,10.9,3.3,14.5,3.7c1.6,0.2,2.9,0.3,4.3,0.6c0.4,2,0.1,6.1,0,7.8
			c-0.1,2.3-0.3,4.9,0.4,7c1,5.3,5.6,24.9,23.8,37.5c-2.6,1.5-5.9,3.1-8.7,3.6c-1.5,0.3-3.1,0.5-4.6,0.7
			c-6.2,0.8-14.7,1.8-18.3,11.6c-1.6,4.3-0.6,7.5,0.6,9.4c2.8,4.7,8.3,5.4,12.4,6c0.6,0.1,1.6,0.2,2.1,0.3c2.5,1.8,10.3,7,18.3,7
			c3.6,0,7.3-1.1,10.6-3.9c1.3-1.1,7.6-1.1,10.6-1c6.4,0.1,12.4,0.1,16.3-3.8c1.9-1.9,2.9-4.4,2.8-7.3c-0.1-5.5,10.4-11.5,18.9-16.2
			c2.1-1.2,4.1-2.3,6.2-3.6C198,177.5,197.5,180.5,196.8,183.4z M199,157.8c-1.9,2.4-8.9,6.4-13.3,8.8
			c-11.4,6.4-24.2,13.6-25.6,25.5c-1.7,0.1-4.1,0.1-5.8,0.1c-6.8-0.1-14.4-0.2-19.5,4.3c-2.2,1.9-8.9-1-12.7-4
			c-2.1-1.7-4.7-2.1-7.4-2.4c1-0.3,2.6-0.5,4.8-0.8c1.6-0.2,3.5-0.4,5.5-0.8c5.9-1.1,21.4-7.6,22.7-16.2c0.5-3.6-1.2-6.9-4.5-8.6
			c-19.7-10.4-22.7-31.4-22.8-32.3l-0.2-1.9c0-0.4,0.1-0.9,0.1-1.3c0.4-6.3,1.1-18.1-8.1-20.9c-3.1-0.9-5.7-1.2-8-1.5
			c-3.2-0.3-6-0.6-10.5-2.6c-1.6-0.7-1.9-1.2-1.9-1.2c-0.4-0.8,0.2-4.6,0.6-7.3c0.3-2.2,0.7-4.7,1.1-7.6c0.9-7.7,4-12.6,6.9-15.9
			c2.2-0.2,4.5-0.3,6.7-0.3c6.9,0,13.8,0.8,20.5,2.3c9.9,2.3,19.2,6.1,27.7,11.3l-0.7,0.7c-1.2,1.2-2.2,2.4-3.2,3.7l-23.6-6.1
			l-10.4,10.4c-1.7,1.7-2.7,4.1-2.7,6.5c0,2.5,1,4.8,2.7,6.5l0.7,0.7l27.2,13.8l1,1l13.8,27.2l0.7,0.7c1.7,1.7,4.1,2.7,6.5,2.7
			c2.5,0,4.8-1,6.5-2.7l10.4-10.4l-6.2-24.1c1.2-0.9,2.4-1.9,3.5-3l1.4-1.3c0.7,1,1.4,2,2,3C193.4,127.4,198.1,142.4,199,157.8z
			 M244.9,129.6l-6.5,6.5L204,73.5l-31.6,29.1l-0.2,0.2c-1.5,1.4-3.1,2.6-4.8,3.5l-4.8,2.4l6.9,26.7l-1,1l-11.4-22.5l-4-4
			l-22.5-11.4l1-1l26.4,6.8l2.4-4.9c0.9-1.8,2.1-3.5,3.6-5l29.2-31.7L131,28.6l6.5-6.5L210.7,44l25.8-27.5c2.1-2.1,4.9-3.2,7.7-3.2
			c2.5,0,4.9,0.9,6.6,2.6c3.8,3.8,3.5,10.1-0.6,14.3l-27.4,25.6L244.9,129.6z"/>
	</g>
</g>
</svg>
