<?xml version="1.0" encoding="utf-8"?>
<!-- Generator: Adobe Illustrator 23.1.0, SVG Export Plug-In . SVG Version: 6.00 Build 0)  -->
<svg version="1.1" id="Capa_1" xmlns="http://www.w3.org/2000/svg" xmlns:xlink="http://www.w3.org/1999/xlink" x="0px" y="0px"
	 viewBox="0 0 460 460" style="enable-background:new 0 0 460 460;" xml:space="preserve">
<style type="text/css">
	.st0{fill:#D69E47;}
</style>
<g>
	<circle class="st0" cx="336.5" cy="45.4" r="36.4"/>
	<path class="st0" d="M460,317.4c0-6.1-5-11.1-11.1-11.1h-14.3v-29.7c4-3.7,6.3-9.1,5.6-15l-14.9-128.1
		c-0.7-22.3-19.1-40.2-41.5-40.2h-47.2c0,0,0,0,0,0s0,0,0,0h-47.2c-9.2,0-17.7,3-24.6,8.1c6.3,9.5,10,20.9,10.1,33.1l0.3,67.6
		c8.2-70.8,7.7-65.9,7.7-67.4c0-1.9,1.6-3.5,3.5-3.5c1.9,0,3.5,1.6,3.5,3.5c0,28,0,138.4,0,140.7c12.6,4,21.7,15.8,21.7,29.7v113.5
		c0,10.2-5,19.3-12.6,25c-0.1,1-0.3,2-0.5,3c3.5,2.6,7.8,4.1,12.4,4.1c11.6,0,21.1-9.4,21.1-21.1V261.6l0,0h9.1l0,0v168.3
		c0,11.6,9.4,21.1,21.1,21.1s21.1-9.4,21.1-21.1l-0.4-292.6c0-2,1.5-3.6,3.5-3.7s3.7,1.3,3.9,3.3l0,0l15,128.9
		c0.7,6.3,4.7,11.4,10.1,13.9v26.7h-14.3c-6.1,0-11.1,5-11.1,11.1v106.2c0,6.1,5,11.1,11.1,11.1h47.8c6.1,0,11.1-5,11.1-11.1
		L460,317.4L460,317.4z"/>
	<path class="st0" d="M45.4,91.2l3.3-31.9c0.2-2-1.3-3.8-3.3-4L9.6,51.5c-2-0.2-3.8,1.3-4,3.3L0,107.6c-0.2,2,1.3,3.8,3.3,4L7,112
		c2.4-5.1,5.9-9.7,10.6-13.4C25.1,92.7,35,89.7,45.4,91.2z"/>
	<path class="st0" d="M166.9,81.8c20,0,36.4-16.3,36.4-36.4C203.3,25.3,187,9,166.9,9s-36.4,16.3-36.4,36.4
		C130.6,65.6,146.9,81.8,166.9,81.8z"/>
	<path class="st0" d="M292.4,305.3c0-6.6-5.4-12-12-12h-13.2v-30.7c0-4.4-3.6-8-8-8h-2.9l-0.1-19.2l0,0l-0.5-100.6
		c-0.1-22.8-18.7-41.3-41.5-41.3c-1.9,0-50.9,0-94.4,0C102.1,93.4,87,104.4,81,120c-3.3,8.5-2.8,14.3-2.9,25.4l-26.2-32.1
		c-6.1-7.5-17.2-8.6-24.7-2.5c-7.3,6-8.5,16.6-2.9,24.1c0.1,0.2,0.3,0.4,0.4,0.6l57.1,70c4.7,5.8,12.5,7.9,19.4,5.4
		c7-2.5,11.7-9.1,11.7-16.5c0-6,0.3-53.5,0.3-59.5c0-1.9,1.6-3.5,3.5-3.5c1.9,0,3.5,1.6,3.5,3.5c0,26.2,0,120.3,0,126.7h0
		c0,3,0,163.4,0,168.3c0,11.6,9.4,21.1,21.1,21.1s21.1-9.4,21.1-21.1V261.6l0,0h9.1l0,0v26c4.6-6.6,11.6-11.3,19.7-12.9
		c0-13.6,0-12.1,0-13.1c0.4-12.8,9.8-23.4,22-25.7c0-9.7,0-78.1,0-101.2c0-2,1.6-3.7,3.7-3.7c2,0,3.7,1.6,3.7,3.7c0,0.1,0,0.2,0,0.2
		l0,0.8l0.5,99.7l0,0l0.1,19.2h-2.8c-4.4,0-8,3.6-8,8v30.7h-13.2c-6.6,0-12,5.4-12,12v113.5c0,6.6,5.4,12,12,12h0.4v10
		c0,5.3,4.3,9.6,9.6,9.6c5.3,0,9.6-4.3,9.6-9.6v-10h44.1v10c0,5.3,4.3,9.6,9.6,9.6c5.3,0,9.6-4.3,9.6-9.6v-10h0.4
		c6.6,0,12-5.4,12-12L292.4,305.3L292.4,305.3z M251.1,293.3h-24.7v-17.1c3.2,3.1,7.5,5.1,12.3,5.1c0,0,0.1,0,0.1,0
		c4.8,0,9.1-2,12.3-5.1L251.1,293.3L251.1,293.3z"/>
</g>
</svg>
